<?xml version="1.0" encoding="UTF-8"?>
<svg version="1.1" xmlns="http://www.w3.org/2000/svg" width="1254" height="1254">
<path d="M0 0 C413.82 0 827.64 0 1254 0 C1254 413.82 1254 827.64 1254 1254 C840.18 1254 426.36 1254 0 1254 C0 840.18 0 426.36 0 0 Z " fill="#000000" transform="translate(0,0)"/>
<path d="M0 0 C6.29461531 -0.10255187 12.58901041 -0.17194102 18.88427734 -0.21972656 C21.01977589 -0.23967547 23.15522102 -0.26684458 25.29052734 -0.30175781 C47.2816738 -0.65196811 64.62821738 2.72312734 80.93310547 18.43139648 C86.6196047 24.12290018 91.9114812 30.07065909 96.89453125 36.390625 C99.16114352 39.19971034 101.55303034 41.84693029 104 44.5 C108.04002083 48.89429958 111.84632449 53.42113347 115.59765625 58.0625 C119.79064159 63.18953248 124.13277833 68.1888857 128.45605469 73.20605469 C130.46061269 75.53519641 132.45804092 77.87039383 134.45556641 80.20556641 C140.71834101 87.5248618 147.02220692 94.80802198 153.33691406 102.08251953 C155.03624782 104.04179248 156.73327771 106.00303879 158.4296875 107.96484375 C164.24166975 114.68424517 170.08363487 121.37208984 176 128 C177.14858121 129.2892238 178.29441903 130.58089695 179.4375 131.875 C180.00597656 132.51308594 180.57445312 133.15117187 181.16015625 133.80859375 C182.54447354 135.45743026 183.85301201 137.17033876 185.12109375 138.91015625 C188.83752039 144.36080357 188.83752039 144.36080357 194.22265625 147.74609375 C195.70503658 147.83236985 197.19091271 147.87105543 198.67578125 147.86328125 C205.18355905 148.24609171 210.7148737 152.29732776 214.9375 157 C220.718218 164.04480621 222.01421411 169.74439334 221.29968262 178.73815918 C220.28272308 186.41361468 217.53672022 193.80061805 215.125 201.125 C214.56186905 202.8926145 214.00065911 204.66084219 213.44140625 206.4296875 C209.5451461 218.67067788 209.5451461 218.67067788 207.81958008 222.87841797 C206.70549874 225.76235208 206.94257555 227.09761321 208 230 C209.58928932 232.12289826 211.16701638 234.04291398 212.9375 236 C213.95165759 237.15802493 214.96332112 238.31823816 215.97265625 239.48046875 C216.48328613 240.06747559 216.99391602 240.65448242 217.52001953 241.25927734 C220.17017777 244.37633908 222.6117731 247.64396649 225.08105469 250.90551758 C228.51522525 255.41809323 232.08919833 259.80519648 235.6875 264.1875 C244.43963643 274.89553433 251.34414079 284.9762553 255.94921875 298.0625 C256.98770126 300.9656184 258.11087845 303.82255216 259.25 306.6875 C261.73031651 313.10397097 263.94124006 319.60219096 266.125 326.125 C266.46176758 327.12619873 266.79853516 328.12739746 267.14550781 329.15893555 C269.0529551 334.90438939 270.77553572 340.65974413 272.28466797 346.52294922 C273.02034767 349.07045987 274.0152168 351.538042 275 354 C275.66 359.61 276.32 365.22 277 371 C264.79 371 252.58 371 240 371 C238.35 365.39 236.7 359.78 235 354 C223.27264206 317.03828038 223.27264206 317.03828038 201 286 C200.17242188 285.15824219 199.34484375 284.31648438 198.4921875 283.44921875 C197.00564964 281.95008311 195.50768586 280.46215092 193.99609375 278.98828125 C191.55981829 276.56154112 189.33565939 273.99507701 187.09765625 271.38671875 C184.18812686 268.07624863 181.18885668 264.85215509 178.1875 261.625 C177.61161133 261.00536377 177.03572266 260.38572754 176.44238281 259.74731445 C174.32028302 257.469104 172.20174808 255.20174808 170 253 C170.50039795 253.96711914 171.0007959 254.93423828 171.51635742 255.93066406 C173.38120123 259.55831579 175.19746888 263.20858878 177.00073242 266.8671875 C177.78443096 268.44071101 178.58078857 270.00800046 179.39038086 271.56835938 C186.96245997 286.19804651 186.96245997 286.19804651 185.2265625 293.4765625 C184.54021789 295.33924641 183.79920864 297.1828798 183 299 C182.38798189 300.73129736 181.77726479 302.46305529 181.16796875 304.1953125 C180.51827805 305.84270752 179.85804413 307.48598233 179.1875 309.125 C178.83929199 309.98665771 178.49108398 310.84831543 178.13232422 311.73608398 C175.60935871 317.84355591 172.76183944 323.54892692 169 329 C168.34 329.99 167.68 330.98 167 332 C166.34 332 165.68 332 165 332 C164.73316406 332.58394531 164.46632813 333.16789062 164.19140625 333.76953125 C159.02057629 343.45000307 148.22688991 353.97226061 138.0859375 358.05859375 C135.63276937 359.16573517 133.38341857 360.51241868 131.0625 361.875 C126.38384276 364.47064895 121.70894881 366.27882929 116.625 367.875 C115.94703369 368.0901123 115.26906738 368.30522461 114.57055664 368.52685547 C110.93224245 369.61767304 107.78486756 370.12386839 104 370 C103.34 370.33 102.68 370.66 102 371 C99.95944995 371.07065617 97.91665743 371.08421976 95.875 371.0625 C94.77929688 371.05347656 93.68359375 371.04445313 92.5546875 371.03515625 C91.71164062 371.02355469 90.86859375 371.01195312 90 371 C90 367 90 367 92.375 364.5625 C93.24125 363.716875 94.1075 362.87125 95 362 C95.31324219 361.20335937 95.62648438 360.40671875 95.94921875 359.5859375 C97.09055201 356.77715452 98.3561613 355.24768928 100.4375 353.0625 C105.49181989 347.55118917 110.04341627 341.69839569 114.61523438 335.78759766 C115.94080005 334.07642137 117.27406832 332.37154855 118.609375 330.66796875 C121.10737964 327.47088847 123.56191731 324.2429248 126 321 C126.41056641 320.45988281 126.82113281 319.91976563 127.24414062 319.36328125 C128.47280874 317.73408668 129.6765093 316.08898124 130.875 314.4375 C131.57367187 313.48746094 132.27234375 312.53742188 132.9921875 311.55859375 C138.89494696 302.0284402 140.11614102 290.57438239 141.5625 279.6875 C141.77349578 278.15720092 141.98468055 276.6269279 142.19604492 275.09667969 C144.2317465 260.12013019 145.90037519 245.07550144 147 230 C147.08556152 228.87513184 147.08556152 228.87513184 147.17285156 227.72753906 C147.29075486 225.0328095 147.18079369 223.31369502 145.8203125 220.953125 C145.26085937 220.39109375 144.70140625 219.8290625 144.125 219.25 C143.48820313 218.58484375 142.85140625 217.9196875 142.1953125 217.234375 C141.47085938 216.49703125 140.74640625 215.7596875 140 215 C138.32722444 213.17223885 136.66084383 211.33860998 135 209.5 C134.14148438 208.55769531 133.28296875 207.61539063 132.3984375 206.64453125 C128.29157604 202.11628173 124.28083111 197.5114197 120.32421875 192.8515625 C115.21476317 186.84257271 110.05769484 180.90332626 104.6875 175.125 C104.18726318 174.58665527 103.68702637 174.04831055 103.17163086 173.49365234 C102.68831299 172.97367676 102.20499512 172.45370117 101.70703125 171.91796875 C99.40944385 169.44134857 97.12483354 166.95749989 94.875 164.4375 C94.35679687 163.85871094 93.83859375 163.27992188 93.3046875 162.68359375 C91.90873388 160.88222846 90.94967057 159.06666404 90 157 C89.34 157 88.68 157 88 157 C88.00092179 157.92913837 88.00184359 158.85827675 88.00279331 159.81557083 C88.02497764 182.40743144 88.04141853 204.99929063 88.05181217 227.59115982 C88.05697185 238.51634355 88.06400833 249.4415201 88.07543945 260.36669922 C88.08539628 269.88735991 88.09185582 279.40801539 88.09408849 288.92868114 C88.0953939 293.97133322 88.09846904 299.01397042 88.10573006 304.05661774 C88.11250599 308.80072005 88.11461373 313.54480131 88.11310768 318.288908 C88.1133833 320.03201601 88.11537911 321.7751247 88.11920547 323.51822853 C88.12416724 325.89468573 88.12298905 328.27106299 88.12025452 330.64752197 C88.12316736 331.34013225 88.1260802 332.03274252 88.12908131 332.74634099 C88.1189989 335.97941236 87.98872941 338.90729481 87 342 C86.34 342 85.68 342 85 342 C85 343.98 85 345.96 85 348 C84.34 348 83.68 348 83 348 C82.773125 349.051875 82.54625 350.10375 82.3125 351.1875 C81.16386406 355.2077258 79.14389639 357.22167296 76 360 C75.236875 360.845625 74.47375 361.69125 73.6875 362.5625 C68.81531667 366.98145697 63.57630051 369.34236995 57 370 C57 370.33 57 370.66 57 371 C49.81006624 371.02534095 42.62014399 371.04286308 35.43017578 371.05493164 C32.98388234 371.05996249 30.53759191 371.06678784 28.09130859 371.07543945 C24.57648984 371.08755952 21.06171082 371.09324079 17.546875 371.09765625 C15.9044986 371.10539818 15.9044986 371.10539818 14.22894287 371.11329651 C12.69780853 371.11340981 12.69780853 371.11340981 11.13574219 371.11352539 C10.23861511 371.115746 9.34148804 371.11796661 8.41717529 371.12025452 C6.13670667 371.00680116 4.18470868 370.64135959 2 370 C1.21635366 338.42887145 0.86483542 306.97463335 1.68139648 275.40185547 C1.70858261 274.30207367 1.73576874 273.20229187 1.76377869 272.06918335 C1.81585558 270.00949804 1.87278738 267.9499279 1.93531799 265.89053345 C1.95859665 264.99144257 1.98187531 264.09235168 2.00585938 263.16601562 C2.02886108 262.38085571 2.05186279 261.5956958 2.07556152 260.78674316 C2.20079895 258.97526614 2.20079895 258.97526614 1 258 C0.8757068 255.88237258 0.8225482 253.76056699 0.79566956 251.63946533 C0.78097314 250.62944124 0.78097314 250.62944124 0.76597983 249.59901261 C0.7342947 247.32288047 0.70995273 245.04673145 0.68579102 242.77050781 C0.66523267 241.14330916 0.64435802 239.51611448 0.62318993 237.88892365 C0.56699912 233.43200264 0.5181377 228.97502877 0.47130275 224.5180006 C0.44133067 221.69600844 0.40967047 218.8740396 0.3775959 216.05207062 C-0.09375173 174.18600938 -0.12181845 132.32145319 -0.07202756 90.4532752 C-0.06045665 80.54118254 -0.05525645 70.62908878 -0.05032361 60.71699095 C-0.04012235 40.47798639 -0.02277033 20.2389941 0 0 Z " fill="#4BA63E" transform="translate(413,318)"/>
<path d="M0 0 C0 28.71 0 57.42 0 87 C-3.63 88.32 -7.26 89.64 -11 91 C-14.9629736 93.31049772 -18.44570161 96.10467372 -22 99 C-23.21623047 99.98613281 -23.21623047 99.98613281 -24.45703125 100.9921875 C-31.51622603 107.0364092 -37.43324898 114.01820322 -43.40380859 121.10546875 C-44.91490995 122.899006 -46.43427239 124.68510785 -47.95703125 126.46875 C-53.72767046 133.23955356 -59.38590652 140.0989212 -65 147 C-66.41624911 148.72950867 -67.83292473 150.45866817 -69.25 152.1875 C-73.57936961 157.47811077 -77.8899887 162.78383854 -82.19775391 168.09204102 C-85.32735398 171.94706023 -88.46960977 175.79103123 -91.625 179.625 C-94.95452259 183.68494802 -98.20594021 187.79971187 -101.4375 191.9375 C-105.7450268 197.45203561 -110.1706272 202.84563353 -114.66796875 208.20703125 C-120.29397652 214.94504726 -125.676157 221.8641136 -131.01000977 228.83398438 C-134.26719854 233.07750931 -137.58854906 237.26612254 -140.9375 241.4375 C-150.09968159 252.84991338 -159.10205902 264.38056297 -168 276 C-172.15381429 274.44110932 -174.4693453 271.40286554 -177.1875 268.0625 C-177.67234863 267.47766846 -178.15719727 266.89283691 -178.65673828 266.2902832 C-180.11130931 264.5323384 -181.55639428 262.76695303 -183 261 C-183.74636719 260.09507812 -184.49273438 259.19015625 -185.26171875 258.2578125 C-187.51809105 255.5134632 -189.75893628 252.7568641 -192 250 C-193.09086378 248.66773775 -194.18203059 247.33572359 -195.2734375 246.00390625 C-196.4323901 244.58601795 -197.59124453 243.16804941 -198.75 241.75 C-199.29317871 241.08830811 -199.83635742 240.42661621 -200.39599609 239.74487305 C-201.94714169 237.84253817 -203.47374495 235.92232124 -205 234 C-205.50724609 233.39607422 -206.01449219 232.79214844 -206.53710938 232.16992188 C-208.69640123 229.45665997 -209.97039811 227.61012785 -210.140625 224.1015625 C-208.55663018 219.79439849 -206.27030405 216.19461335 -203.75 212.375 C-202.95287598 211.14124634 -202.95287598 211.14124634 -202.13964844 209.88256836 C-201.01166017 208.13965837 -199.87905514 206.39972884 -198.7421875 204.66259766 C-197.0162191 202.02478777 -195.30327801 199.37895699 -193.59375 196.73046875 C-188.51950074 188.87959029 -183.40867682 181.0536461 -178.203125 173.2890625 C-176.41596652 170.62099966 -174.6358374 167.94861788 -172.859375 165.2734375 C-160.49949576 146.67031913 -147.83792529 128.28783985 -135.06591797 109.96582031 C-132.99073869 106.98670452 -130.91868217 104.00544187 -128.84765625 101.0234375 C-121.41656383 90.32499131 -113.95546217 79.64950451 -106.42675781 69.01953125 C-104.97484163 66.96438911 -103.52957546 64.90471414 -102.0859375 62.84375 C-99.07549832 58.54945437 -96.04560404 54.26942539 -93 50 C-92.43490723 49.2073877 -91.86981445 48.41477539 -91.28759766 47.59814453 C-66.89707613 13.53493896 -66.89707613 13.53493896 -48 5 C-46.96617187 4.51144531 -45.93234375 4.02289063 -44.8671875 3.51953125 C-29.7285198 -2.41948454 -17.44673406 0 0 0 Z " fill="#66C74B" transform="translate(843,318)"/>
<path d="M0 0 C19.14 0 38.28 0 58 0 C58 38.61 58 77.22 58 117 C38.86 117 19.72 117 0 117 C0 78.39 0 39.78 0 0 Z " fill="#328430" transform="translate(803,572)"/>
<path d="M0 0 C6.35867243 4.65331419 11.5691784 9.85942821 15 17 C15.47566406 17.9590625 15.47566406 17.9590625 15.9609375 18.9375 C20.19977477 29.20404165 19.14315243 42.90008881 15 53 C10.36836135 62.78271342 3.28892324 70.23096736 -7 74 C-12.72444605 75.67618558 -17.91936039 76.38776528 -23.875 76.375 C-24.66221436 76.37338867 -25.44942871 76.37177734 -26.26049805 76.37011719 C-34.64630484 76.19377407 -41.91720596 74.08279404 -48 68 C-48 67.34 -48 66.68 -48 66 C-48.66 66 -49.32 66 -50 66 C-50 78.87 -50 91.74 -50 105 C-55.94 105 -61.88 105 -68 105 C-68.13622436 94.81111611 -68.24601421 84.6228492 -68.31087303 74.43325615 C-68.34202155 69.70043646 -68.38418768 64.9682787 -68.45263672 60.23583984 C-68.51842437 55.65810891 -68.55382953 51.08100959 -68.56926346 46.50284195 C-68.5802444 44.76709186 -68.60168417 43.03137148 -68.63438034 41.29589462 C-68.86942551 28.28790889 -67.25816591 17.85261392 -59.3125 7.0625 C-44.29085956 -8.42979236 -18.16853114 -11.43162101 0 0 Z " fill="#4EBA3F" transform="translate(1034,793)"/>
<path d="M0 0 C5.28 0 10.56 0 16 0 C19.41027389 3.54488996 21.50794232 6.00171049 23.86328125 10.09619141 C25.94575799 13.58398213 28.38030387 16.82897503 30.75 20.125 C31.77227549 21.5771108 32.79308393 23.03025539 33.8125 24.484375 C41.7424909 35.74968465 49.88409557 46.86821567 58 58 C61.47850911 56.84049696 61.92326617 56.07055411 63.93359375 53.125 C64.49377197 52.31337402 65.0539502 51.50174805 65.63110352 50.66552734 C66.22721436 49.78590332 66.8233252 48.9062793 67.4375 48 C68.70539466 46.1586238 69.97362923 44.3174816 71.2421875 42.4765625 C72.19303223 41.08872559 72.19303223 41.08872559 73.16308594 39.67285156 C75.76600462 35.88540423 78.4093575 32.12736535 81.0625 28.375 C81.77647949 27.36264282 81.77647949 27.36264282 82.50488281 26.32983398 C86.91779608 20.0856061 91.39900855 13.89096325 95.90063477 7.71044922 C96.42197998 6.99260254 96.9433252 6.27475586 97.48046875 5.53515625 C98.17499146 4.58201538 98.17499146 4.58201538 98.88354492 3.60961914 C100.0663936 1.98579218 100.0663936 1.98579218 101 0 C106.61 0 112.22 0 118 0 C118 35.31 118 70.62 118 107 C112.06 107 106.12 107 100 107 C100 82.91 100 58.82 100 34 C99.34 34 98.68 34 98 34 C97.76023437 34.70511719 97.52046875 35.41023437 97.2734375 36.13671875 C95.78770298 39.47734268 93.89784894 41.94753345 91.625 44.8125 C90.71908786 45.96669176 89.81418434 47.1216757 88.91015625 48.27734375 C88.43465332 48.88304199 87.95915039 49.48874023 87.46923828 50.11279297 C84.9596286 53.33633615 82.51288117 56.60636725 80.0625 59.875 C79.56016846 60.53669189 79.05783691 61.19838379 78.5402832 61.88012695 C75.95213575 65.30626226 73.46767276 68.76263869 71.109375 72.3515625 C70.63878662 73.04781738 70.16819824 73.74407227 69.68334961 74.46142578 C68.79393895 75.78405784 67.92838032 77.12316675 67.09204102 78.47998047 C65.37963821 80.99023438 63.81461338 82.74679295 60.86987305 83.66210938 C57.45413887 83.97305208 55.05416898 83.86786449 52.34643555 81.63867188 C50.78139268 79.67213707 49.48303709 77.65359001 48.1875 75.5 C47.1640611 73.92798993 46.1379505 72.35771647 45.109375 70.7890625 C44.59568359 69.98758789 44.08199219 69.18611328 43.55273438 68.36035156 C41.17313826 64.74306614 38.56720579 61.31261442 35.9375 57.875 C30.19453377 50.31874635 24.61484654 42.65660891 19 35 C18.67 58.76 18.34 82.52 18 107 C12.06 107 6.12 107 0 107 C0 71.69 0 36.38 0 0 Z " fill="#F0EFF0" transform="translate(204,761)"/>
<path d="M0 0 C8.69296439 5.97875824 14.41117682 13.60653213 17.8046875 23.63671875 C19.81316633 35.05225659 18.65795764 47.54408585 12.5625 57.5 C5.77323876 66.87724697 -3.37916167 73.54717812 -14.8125 75.8125 C-29.00842699 77.10664296 -42.50519536 76.83760234 -53.96875 67.51171875 C-62.34418947 59.79282856 -68.16627255 51.4515407 -69.03515625 39.8359375 C-69.41892097 25.85355333 -66.02752924 15.45199855 -56.625 5.125 C-41.7298882 -9.07654784 -17.33626974 -10.30296628 0 0 Z " fill="#EDECED" transform="translate(408.8125,793.1875)"/>
<path d="M0 0 C6.52254616 4.64395952 10.42220631 9.72120703 13.1875 17.1875 C14.1775 19.6625 14.1775 19.6625 15.1875 22.1875 C15.1875 28.4575 15.1875 34.7275 15.1875 41.1875 C-5.9325 41.1875 -27.0525 41.1875 -48.8125 41.1875 C-45.67424666 50.2378076 -45.67424666 50.2378076 -38.8125 55.9375 C-29.66393918 59.74940034 -18.21881262 59.41988819 -8.91015625 56.1875 C-5.6749797 54.64521844 -3.3746844 52.68225849 -0.8125 50.1875 C2.55948902 51.65325198 4.83737004 53.53931521 7.4375 56.125 C8.14390625 56.81464844 8.8503125 57.50429688 9.578125 58.21484375 C11.1875 60.1875 11.1875 60.1875 11.1875 63.1875 C0.41255762 72.01639765 -11.35980104 75.38348656 -24.9375 75.5 C-26.0409375 75.52900391 -27.144375 75.55800781 -28.28125 75.58789062 C-35.4205574 75.64300404 -40.59378077 74.71737762 -46.8125 71.1875 C-47.67101562 70.72988281 -48.52953125 70.27226563 -49.4140625 69.80078125 C-57.93309872 64.32425797 -64.72505771 55.93485292 -67.39453125 46.02734375 C-68.95357113 35.43461484 -69.35321637 23.63147016 -63.8125 14.1875 C-63.173125 13.094375 -62.53375 12.00125 -61.875 10.875 C-46.70590127 -8.89079531 -21.08216483 -12.97631598 0 0 Z " fill="#51BC40" transform="translate(935.8125,793.8125)"/>
<path d="M0 0 C9.47176054 6.87192558 16.02702024 15.31747419 18 27 C18.27379543 32.0179235 18.33678277 36.98064136 18 42 C17 43 17 43 14.45005798 43.12025452 C12.74795921 43.1169236 12.74795921 43.1169236 11.01147461 43.11352539 C9.73022202 43.11344986 8.44896942 43.11337433 7.12889099 43.11329651 C5.72004152 43.10818909 4.31119244 43.10297309 2.90234375 43.09765625 C1.46887766 43.09579202 0.03541093 43.09436814 -1.39805603 43.09336853 C-5.17759957 43.08954372 -8.9571049 43.07971377 -12.7366333 43.06866455 C-16.59069298 43.05844963 -20.44475882 43.05387074 -24.29882812 43.04882812 C-31.86590287 43.03809146 -39.43294609 43.02101549 -47 43 C-46.26479601 44.59811326 -45.51438182 46.18923363 -44.7578125 47.77734375 C-44.34160645 48.66413818 -43.92540039 49.55093262 -43.49658203 50.46459961 C-40.65202751 55.28363692 -36.24484347 58.25171884 -31 60 C-18.42405971 60.6483998 -8.79908764 60.49076259 1 52 C4.45201639 53.47721422 6.64961936 55.43794001 9.25 58.125 C9.95640625 58.84945312 10.6628125 59.57390625 11.390625 60.3203125 C11.92171875 60.87460937 12.4528125 61.42890625 13 62 C10.18102836 68.54001421 4.12547962 71.71892471 -2.25 74.3125 C-9.04914428 76.8784191 -14.94941565 77.21351312 -22.1875 77.25 C-23.19103516 77.270625 -24.19457031 77.29125 -25.22851562 77.3125 C-36.87245278 77.37310605 -45.63962283 73.88673206 -54.203125 65.9609375 C-59.10861004 60.81926244 -61.84689209 55.73910611 -64 49 C-64.495 47.515 -64.495 47.515 -65 46 C-65.25550881 42.62960646 -65.23138255 39.25406675 -65.25 35.875 C-65.270625 34.96234375 -65.29125 34.0496875 -65.3125 33.109375 C-65.37752105 21.69818028 -61.79729695 13.9719801 -53.92578125 5.86328125 C-40.0423047 -7.24485281 -16.59213439 -9.95065243 0 0 Z " fill="#EBEAEB" transform="translate(605,792)"/>
<path d="M0 0 C16.17 0 32.34 0 49 0 C49 27.58768657 49 27.58768657 48.78125 36.84375 C48.7615918 37.76317383 48.74193359 38.68259766 48.72167969 39.62988281 C48.65060738 42.91998402 48.57508903 46.20998801 48.5 49.5 C48.335 56.925 48.17 64.35 48 72 C32.16 72 16.32 72 0 72 C0 48.24 0 24.48 0 0 Z " fill="#2F7F2E" transform="translate(748,617)"/>
<path d="M0 0 C6.6 0 13.2 0 20 0 C28.38696267 18.97690087 36.76249018 37.95759849 45 57 C47.06481488 53.90277767 48.56596417 50.72879287 50.08203125 47.34765625 C50.37808762 46.69228378 50.67414398 46.03691132 50.97917175 45.36167908 C51.60662095 43.97110904 52.23275349 42.57994427 52.85766602 41.18823242 C53.79570117 39.09989898 54.73830091 37.01367607 55.68164062 34.92773438 C58.88380251 27.82892889 61.99443317 20.7049638 64.96118164 13.50366211 C66.8523552 8.94573383 68.9360805 4.48165377 71 0 C77.6 0 84.2 0 91 0 C89.74219946 3.14450134 88.50248594 6.1356787 87.0390625 9.16796875 C86.6565332 9.96452881 86.27400391 10.76108887 85.87988281 11.58178711 C85.25871582 12.87161499 85.25871582 12.87161499 84.625 14.1875 C80.76796619 22.24135392 76.98191387 30.3249401 73.25 38.4375 C68.88246694 47.93007671 64.48625112 57.40853984 60.0625 66.875 C55.23703121 77.20233757 50.4233881 87.53504924 45.625 97.875 C45.33779083 98.49389099 45.05058167 99.11278198 44.75466919 99.75042725 C43.16936272 103.16675838 41.58461133 106.58334633 40 110 C33.73 110 27.46 110 21 110 C24.35904936 99.92285192 24.35904936 99.92285192 26.515625 95.7734375 C27.18464844 94.443125 27.18464844 94.443125 27.8671875 93.0859375 C28.79546278 91.26609839 29.733113 89.45101339 30.6796875 87.640625 C31.12054687 86.75632812 31.56140625 85.87203125 32.015625 84.9609375 C32.42071289 84.17509277 32.82580078 83.38924805 33.24316406 82.57958984 C35.16862439 76.0168757 31.98551504 70.14899698 29.203125 64.33203125 C28.81754425 63.50677948 28.4319635 62.68152771 28.03469849 61.83126831 C26.78161172 59.15427201 25.51581169 56.48349933 24.25 53.8125 C23.38527395 51.96960542 22.52150998 50.12625911 21.65869141 48.2824707 C19.93049283 44.5926531 18.19764895 40.90508472 16.45996094 37.21972656 C13.35993842 30.64500645 10.2772219 24.06231669 7.20837402 17.47299194 C6.39152746 15.72290985 5.56935254 13.97531791 4.74707031 12.2277832 C4.26077148 11.18710693 3.77447266 10.14643066 3.2734375 9.07421875 C2.85497559 8.18307373 2.43651367 7.29192871 2.00537109 6.3737793 C1 4 1 4 0 0 Z " fill="#EBEAEA" transform="translate(626,788)"/>
<path d="M0 0 C0.95712891 -0.00636475 1.91425781 -0.01272949 2.90039062 -0.01928711 C11.81964817 0.13867715 20.2172889 1.94713318 28.125 6.1875 C28.95386719 6.62449219 29.78273438 7.06148437 30.63671875 7.51171875 C31.23097656 7.83785156 31.82523438 8.16398438 32.4375 8.5 C31.18111009 11.8523301 29.75016112 14.80402615 27.8125 17.8125 C27.36648438 18.50988281 26.92046875 19.20726562 26.4609375 19.92578125 C26.12320313 20.44527344 25.78546875 20.96476563 25.4375 21.5 C22.68460384 21.13777682 20.05789783 20.72869567 17.4453125 19.765625 C11.68072597 17.65127838 6.27392553 17.14679441 0.1875 17.0625 C-0.58110352 17.04050537 -1.34970703 17.01851074 -2.14160156 16.99584961 C-7.36220512 17.01455129 -10.48505062 17.95383524 -14.5625 21.5 C-15.31265195 24.54308291 -15.31265195 24.54308291 -14.5625 27.5 C-12.26987652 30.50999276 -9.99295721 31.16163199 -6.375 32 C-5.31152344 32.24878906 -4.24804688 32.49757813 -3.15234375 32.75390625 C0.05591828 33.42069411 3.26431941 34.01108764 6.49169922 34.57348633 C16.66900498 36.36249398 26.3263913 38.41919466 33.4375 46.5 C36.9014767 51.75408546 35.96937286 58.49454944 35.4375 64.5 C33.7849378 70.79359017 29.72926801 74.91597878 24.4375 78.5 C12.12051343 85.13222354 -4.68889298 85.39402879 -18 81.8125 C-32.92350884 76.95848675 -32.92350884 76.95848675 -36.5625 71.5 C-35.46950499 69.51464194 -34.36273764 67.53686057 -33.25 65.5625 C-32.32767578 63.90927734 -32.32767578 63.90927734 -31.38671875 62.22265625 C-29.5625 59.5 -29.5625 59.5 -26.5625 58.5 C-26.5625 59.16 -26.5625 59.82 -26.5625 60.5 C-24.8994416 61.17561748 -23.23155395 61.83933281 -21.5625 62.5 C-20.63824219 62.87898437 -20.63824219 62.87898437 -19.6953125 63.265625 C-19.03273438 63.52859375 -18.37015625 63.7915625 -17.6875 64.0625 C-16.76324219 64.43568359 -16.76324219 64.43568359 -15.8203125 64.81640625 C-7.15429744 67.44019974 5.1158923 68.67379907 13.375 64.5 C14.385625 63.84 15.39625 63.18 16.4375 62.5 C16.4375 59.86 16.4375 57.22 16.4375 54.5 C9.03727914 50.57050267 1.40522758 49.58596772 -6.80932617 48.71557617 C-13.00830763 47.98706216 -18.01441575 46.34622641 -23.5625 43.5 C-24.490625 43.025625 -25.41875 42.55125 -26.375 42.0625 C-30.30211516 39.25741774 -32.68831929 36.24074924 -33.5625 31.5 C-34.13711969 23.66528152 -34.06821944 17.22554579 -29.2265625 10.69921875 C-21.19859059 1.55516294 -11.55568717 0.06578366 0 0 Z " fill="#4CB63B" transform="translate(756.5625,786.5)"/>
<path d="M0 0 C1.31581055 -0.01740234 1.31581055 -0.01740234 2.65820312 -0.03515625 C13.75503513 0.01390859 22.84977437 3.51167368 31.5625 10.375 C40.93129919 20.06751787 41.72379675 31.00696193 41.66015625 43.77734375 C41.6587413 44.85504532 41.65732635 45.93274689 41.65586853 47.04310608 C41.65029611 50.46626629 41.63774868 53.88935975 41.625 57.3125 C41.61998144 59.64127509 41.61541915 61.97005122 41.61132812 64.29882812 C41.6003357 69.99091092 41.58309011 75.68294416 41.5625 81.375 C35.6225 81.375 29.6825 81.375 23.5625 81.375 C23.56362793 79.90748291 23.56475586 78.43996582 23.56591797 76.92797852 C23.5622314 71.45395792 23.51929745 65.98081161 23.46484375 60.50708008 C23.44673845 58.14353079 23.43910525 55.77987612 23.44238281 53.41625977 C23.44525545 50.00715458 23.40977585 46.60021078 23.3671875 43.19140625 C23.37628143 42.14416885 23.38537537 41.09693146 23.39474487 40.01795959 C23.25127876 32.68350363 21.48886292 27.87930203 16.5625 22.375 C11.91794417 18.37043743 7.03722586 17.69212579 1.125 17.8125 C0.37581299 17.82200684 -0.37337402 17.83151367 -1.14526367 17.84130859 C-6.94744907 18.06035455 -11.28602587 19.06644307 -15.4375 23.375 C-19.00365609 27.94699498 -20.53934813 31.46341774 -20.64282227 37.21362305 C-20.66276749 38.1944133 -20.68271271 39.17520355 -20.70326233 40.18571472 C-20.72833107 41.77021172 -20.72833107 41.77021172 -20.75390625 43.38671875 C-20.77468735 44.47008011 -20.79546844 45.55344147 -20.81687927 46.66963196 C-20.88231797 50.13385616 -20.94123353 53.5981568 -21 57.0625 C-21.04319061 59.40951315 -21.08680507 61.75651853 -21.13085938 64.10351562 C-21.23799361 69.86059854 -21.33927727 75.61775842 -21.4375 81.375 C-27.3775 81.375 -33.3175 81.375 -39.4375 81.375 C-39.56188236 74.04677388 -39.65220992 66.71917372 -39.7121582 59.39013672 C-39.73717123 56.90142093 -39.7711927 54.41277763 -39.81469727 51.92431641 C-39.87593042 48.32956976 -39.90384345 44.73580136 -39.92578125 41.140625 C-39.96449089 39.49456268 -39.96449089 39.49456268 -40.00398254 37.81524658 C-40.00753418 27.84472783 -37.1807453 18.26018049 -30.16015625 10.8984375 C-21.09806716 2.88434511 -11.98859153 -0.15786002 0 0 Z " fill="#EDEDED" transform="translate(482.4375,786.625)"/>
<path d="M0 0 C5.94 0 11.88 0 18 0 C18 6.93 18 13.86 18 21 C26.25 21 34.5 21 43 21 C43 26.28 43 31.56 43 37 C34.75 37 26.5 37 18 37 C18.09703198 42.747868 18.19982345 48.49503128 18.31738281 54.24243164 C18.35561789 56.19679509 18.39048027 58.15122759 18.421875 60.10571289 C18.46764435 62.91838222 18.52561923 65.73057839 18.5859375 68.54296875 C18.59748871 69.41398727 18.60903992 70.2850058 18.62094116 71.18241882 C18.72505956 75.48174884 18.8166073 79.16754898 21 83 C27.42867238 86.29273463 35.1293477 85.40936457 42 84 C43.905247 89.10334017 45.42589023 93.46342706 45 99 C39.75723321 102.20674085 35.57965734 102.45926402 29.625 102.375 C28.81289063 102.38660156 28.00078125 102.39820313 27.1640625 102.41015625 C20.40549033 102.37766311 15.1575769 100.90923254 9.3125 97.375 C1.38657299 89.23485874 -0.32719329 79.18028003 -0.1953125 68.25 C-0.1924826 67.35128174 -0.18965271 66.45256348 -0.18673706 65.52661133 C-0.17563125 62.68426635 -0.15054505 59.84224814 -0.125 57 C-0.11495777 55.0612025 -0.10583411 53.12240001 -0.09765625 51.18359375 C-0.07572345 46.45560518 -0.04126084 41.7278578 0 37 C-4.62 37 -9.24 37 -14 37 C-14 31.72 -14 26.44 -14 21 C-9.38 21 -4.76 21 0 21 C0 14.07 0 7.14 0 0 Z " fill="#53C03F" transform="translate(814,767)"/>
<path d="M0 0 C6.9284445 4.08098062 12.32658216 10.2012654 14.5 18 C15.51853572 26.72049685 14.73858955 33.80010277 9.5 41 C4.25905238 46.80012822 -1.10943063 50.50881758 -8.921875 51.3828125 C-17.72422279 51.78934663 -23.71981954 50.76442308 -30.5 45 C-37.05042967 38.89555703 -39.63681791 33.0229611 -40 24.125 C-39.78870591 16.14653535 -37.82083255 11.46495549 -32.33984375 5.74609375 C-23.35271255 -2.64089513 -11.5902716 -5.2877276 0 0 Z " fill="#62D44E" transform="translate(639.5,402)"/>
<path d="M0 0 C6.33304313 3.42032673 10.09042117 8.92954148 12.875 15.4375 C13.98545993 23.24773485 13.4884395 30.42337723 9.5 37.3125 C5.71735647 42.25903385 0.78419352 45.5445116 -5.125 47.4375 C-13.1235514 48.20779722 -21.59409401 48.77281679 -28.125 43.4375 C-34.58156517 37.40002222 -38.20182079 31.48316658 -38.5625 22.5 C-38.41555405 16.90205916 -37.22435042 13.05952781 -34.125 8.4375 C-33.2896875 7.1071875 -33.2896875 7.1071875 -32.4375 5.75 C-23.87666835 -2.81083165 -11.25148447 -4.38617191 0 0 Z " fill="#050404" transform="translate(396.125,805.5625)"/>
<path d="M0 0 C6.31055734 3.75254939 10.46996877 9.40550627 13.35546875 16.08984375 C14.62286043 25.00383193 13.66788986 32.71693213 8.35546875 40.08984375 C3.7760781 45.43031622 -2.14851605 47.7549451 -8.98828125 48.41015625 C-17.18511387 48.67287524 -23.22116137 48.17918341 -29.3515625 42.51171875 C-35.91126951 35.42531993 -37.28750502 29.07055192 -37.0546875 19.53515625 C-36.15657066 11.99097476 -32.25663299 7.0774286 -26.5859375 2.28125 C-19.3600279 -2.15316133 -8.00573517 -2.75529733 0 0 Z " fill="#010401" transform="translate(1020.64453125,804.91015625)"/>
<path d="M0 0 C2.64 0 5.28 0 8 0 C8 2.64 8 5.28 8 8 C8.804375 7.896875 9.60875 7.79375 10.4375 7.6875 C15.39578974 8.1224377 18.83180138 10.40645419 23 13 C23 17.71906188 21.71245796 19.27037031 19 23 C18.45730469 22.65066406 17.91460938 22.30132812 17.35546875 21.94140625 C16.64003906 21.48636719 15.92460938 21.03132813 15.1875 20.5625 C14.47980469 20.11003906 13.77210938 19.65757812 13.04296875 19.19140625 C10.91865448 17.85913661 10.91865448 17.85913661 8 17 C8 21.95 8 26.9 8 32 C9.340625 32.20625 10.68125 32.4125 12.0625 32.625 C17.21168817 33.74757183 20.47763766 36.14217458 24 40 C25.97436212 43.94872424 25.43829693 48.69616767 25 53 C22.84459619 57.39063739 20.20163397 60.47901962 16 63 C13.00528678 63.59995097 10.04877355 63.86715584 7 64 C7 66.64 7 69.28 7 72 C4.69 72 2.38 72 0 72 C0 69.36 0 66.72 0 64 C-0.97839844 63.96132813 -0.97839844 63.96132813 -1.9765625 63.921875 C-9.13035715 63.45761694 -12.87602854 62.12397146 -18 57 C-17.69670231 53.15822926 -16.47524576 50.90572328 -14 48 C-11.65720173 49.17139913 -9.32334276 50.35242565 -7 51.5625 C-3.91816892 53.16247551 -3.91816892 53.16247551 0 54 C0 49.38 0 44.76 0 40 C-1.98 39.67 -3.96 39.34 -6 39 C-11.24148452 36.06476867 -15.06955943 32.79132171 -17 27 C-17.50201239 20.87544882 -17.09928344 17.87482354 -13 13 C-9.05988017 9.36296631 -5.45447451 7 0 7 C0 4.69 0 2.38 0 0 Z " fill="#4DB53E" transform="translate(830,489)"/>
<path d="M0 0 C14.85 0 29.7 0 45 0 C45 9.9 45 19.8 45 30 C32.79 30 20.58 30 8 30 C6.865625 26.349375 5.73125 22.69875 4.5625 18.9375 C4.20615479 17.80046631 3.84980957 16.66343262 3.48266602 15.49194336 C3.20092529 14.57550049 2.91918457 13.65905762 2.62890625 12.71484375 C2.34088135 11.78792725 2.05285645 10.86101074 1.75610352 9.90600586 C0.91168581 6.66057351 0.47425462 3.31978237 0 0 Z " fill="#2A782E" transform="translate(696,659)"/>
<path d="M0 0 C4.51249397 2.6903241 7.11997878 6.0910557 9 11 C9 12.32 9 13.64 9 15 C-6.51 15 -22.02 15 -38 15 C-35.74074074 5.96296296 -35.74074074 5.96296296 -31.6875 2.625 C-30.92824219 1.97789062 -30.16898438 1.33078125 -29.38671875 0.6640625 C-20.75955932 -5.35094555 -9.27844337 -4.13477868 0 0 Z " fill="#080808" transform="translate(596,806)"/>
<path d="M0 0 C3.1843504 2.59554599 6.14788583 5.29577166 8 9 C8 10.98 8 12.96 8 15 C-7.51 15 -23.02 15 -39 15 C-36.66161474 6.81565159 -33.58740098 2.90216499 -26.375 -1.4375 C-18.50623439 -4.98226431 -7.50796331 -4.20679656 0 0 Z " fill="#030902" transform="translate(925,806)"/>
<path d="M0 0 C0 28.71 0 57.42 0 87 C-2.64 87.33 -5.28 87.66 -8 88 C-7.34 87.34 -6.68 86.68 -6 86 C-5.01 86 -4.02 86 -3 86 C-3 58.28 -3 30.56 -3 2 C-16.17653236 0.83260557 -16.17653236 0.83260557 -27 5 C-28.0725 4.835 -29.145 4.67 -30.25 4.5 C-34.34407811 3.95412292 -36.22641295 4.47450736 -40 6 C-40.969375 6.309375 -41.93875 6.61875 -42.9375 6.9375 C-49.41527167 9.18489017 -54.55923977 11.89167085 -60 16 C-60.33 15.34 -60.66 14.68 -61 14 C-46.29676807 -3.15377058 -19.79105286 0 0 0 Z " fill="#81D04F" transform="translate(843,318)"/>
<path d="M0 0 C0.33 0 0.66 0 1 0 C1 27.72 1 55.44 1 84 C1.66 84.33 2.32 84.66 3 85 C2.98120789 86.09038826 2.98120789 86.09038826 2.96203613 87.20280457 C2.8021974 96.53094405 2.64859082 105.85917522 2.5 115.1875 C2.48218412 116.3055666 2.48218412 116.3055666 2.46400833 117.4462204 C2.04910173 143.63486992 1.91090708 169.80668244 2 196 C18.5 196 35 196 52 196 C52 196.33 52 196.66 52 197 C34.70751918 198.2351772 17.33653817 198 0 198 C0 132.66 0 67.32 0 0 Z " fill="#14521F" transform="translate(413,492)"/>
<path d="M0 0 C61.98254737 0 61.98254737 0 80.14916992 17.69824219 C83.16919013 20.73878644 86.12222168 23.82448982 89 27 C89.51916992 27.5563916 90.03833984 28.1127832 90.57324219 28.68603516 C91.9921875 30.26953125 91.9921875 30.26953125 94 33 C93.67 33.99 93.34 34.98 93 36 C88.2266717 31.47789951 88.2266717 31.47789951 87.0625 29.0234375 C85.82410289 26.66501947 84.45899301 25.51303566 82.375 23.875 C80.4609375 22.3671875 80.4609375 22.3671875 79 21 C79 20.34 79 19.68 79 19 C78.38125 18.7525 77.7625 18.505 77.125 18.25 C74.64931313 16.79371361 74.04874998 15.62187494 73 13 C72.01 13 71.02 13 70 13 C70 12.34 70 11.68 70 11 C68.35 10.67 66.7 10.34 65 10 C65 9.34 65 8.68 65 8 C60.545 7.01 60.545 7.01 56 6 C56 5.34 56 4.68 56 4 C55.01 4.33 54.02 4.66 53 5 C51 4.33333333 49 3.66666667 47 3 C43.74955291 2.83201531 43.74955291 2.83201531 41 3 C41 2.34 41 1.68 41 1 C36.40981063 1.09395795 31.82012259 1.20014291 27.23046875 1.31738281 C25.67097602 1.35552961 24.1113996 1.39040682 22.55175781 1.421875 C20.30243126 1.46783825 18.05367385 1.52577808 15.8046875 1.5859375 C15.1138205 1.59748871 14.42295349 1.60903992 13.71115112 1.62094116 C9.4423485 1.7494109 6.00500645 2.58198796 2 4 C2.00222061 5.02885818 2.00444122 6.05771637 2.00672913 7.11775208 C2.03433143 20.34932549 2.05188157 33.58090226 2.0625 46.8125 C2.06335602 47.87160835 2.06421204 48.93071671 2.06509399 50.02191925 C2.08587377 79.14346378 1.98348237 108.25716532 1.5 137.375 C1.48804218 138.09570805 1.47608437 138.81641609 1.46376419 139.55896378 C1.32194214 148.0395522 1.16846182 156.51989729 1 165 C0.67 165 0.34 165 0 165 C0 110.55 0 56.1 0 0 Z " fill="#8AEF5F" transform="translate(414,319)"/>
<path d="M0 0 C5.53846154 3.07692308 5.53846154 3.07692308 7 6 C7.50312928 10.36045376 7.24536764 12.55015933 5.125 16.4375 C2.62602148 19.10832804 0.54186265 19.47060337 -3.0625 19.625 C-6.50371753 19.42016562 -7.72370515 19.20216696 -10.5625 17.125 C-13.1875975 13.24442108 -13.39986425 10.71839821 -13 6 C-9.30298192 0.33123894 -6.70067405 -0.5583895 0 0 Z " fill="#53DA3E" transform="translate(797,921)"/>
<path d="M0 0 C11.73477957 -0.57242827 11.73477957 -0.57242827 17 4 C18 5 18 5 18.375 8.6875 C18.27531722 12.37576284 17.57577138 15.13330289 14.9765625 17.9453125 C10.47046599 20.34975135 4.90425956 19.29722785 0 19 C0 12.73 0 6.46 0 0 Z " fill="#43B12F" transform="translate(714,921)"/>
<path d="M0 0 C0.33 0 0.66 0 1 0 C2.00644224 7.86573319 1.80543548 15.13227046 1 23 C0.75035492 26.36264354 0.51467372 29.72604127 0.28125 33.08984375 C0.02025356 35.79043192 -0.45451529 38.34559407 -1 41 C-1.16523654 42.56056736 -1.31081524 44.12333102 -1.4375 45.6875 C-1.84808998 50.06060912 -2.57815789 54.28579766 -3.5 58.578125 C-3.86833134 60.36222995 -4.17437904 62.15946768 -4.4453125 63.9609375 C-7.41633964 80.23881857 -19.91740265 93.93093271 -30.07421875 106.38671875 C-32.91318977 109.87095309 -35.65257857 113.42439067 -38.375 117 C-45.27063576 125.99093344 -45.27063576 125.99093344 -49 130 C-49.66 130 -50.32 130 -51 130 C-49.33657976 125.98249965 -46.53739535 123.01999542 -43.6875 119.8125 C-37.33325825 112.52000266 -31.40349691 104.95613067 -25.63330078 97.1953125 C-24.53558126 95.71987245 -23.43228871 94.24856391 -22.32373047 92.78125 C-20.67741283 90.59577897 -19.0547896 88.39450983 -17.4375 86.1875 C-16.94894531 85.54321045 -16.46039062 84.8989209 -15.95703125 84.23510742 C-8.59501375 74.01079716 -7.05673398 61.86505893 -5.4375 49.6875 C-5.22655674 48.16232053 -5.0153712 46.63717454 -4.80395508 45.11206055 C-2.76019235 30.11946448 -1.2903301 15.07420505 0 0 Z " fill="#2D8831" transform="translate(560,548)"/>
<path d="M0 0 C18.81 0 37.62 0 57 0 C57 9.57 57 19.14 57 29 C56.67 29 56.34 29 56 29 C56 20.42 56 11.84 56 3 C49.91678105 2.97693809 43.83371625 2.95705643 37.75048828 2.94506836 C35.68472782 2.94006613 33.61897085 2.93326224 31.55322266 2.92456055 C28.56932712 2.91231375 25.58547875 2.90673044 22.6015625 2.90234375 C21.69072906 2.89718246 20.77989563 2.89202118 19.84146118 2.88670349 C13.8373137 2.88618824 7.96192475 3.29264365 2 4 C2.00523682 4.82798096 2.01047363 5.65596191 2.01586914 6.5090332 C2.11858037 25.37019488 1.87785381 44.15415964 1 63 C0.67 63 0.34 63 0 63 C0 42.21 0 21.42 0 0 Z " fill="#5DCE46" transform="translate(804,572)"/>
<path d="M0 0 C10.04995766 -0.48433531 10.04995766 -0.48433531 14.1875 1.625 C16 4 16 4 16.4375 7.125 C16 10 16 10 14 12 C14.32326553 15.59679066 14.32326553 15.59679066 15 19 C14.01 19 13.02 19 12 19 C11.54625 18.360625 11.0925 17.72125 10.625 17.0625 C9.1337227 14.75235447 9.1337227 14.75235447 6.3125 14.25 C5.549375 14.1675 4.78625 14.085 4 14 C4 15.98 4 17.96 4 20 C2.68 20 1.36 20 0 20 C0 13.4 0 6.8 0 0 Z " fill="#48B534" transform="translate(477,921)"/>
<path d="M0 0 C9.9978099 -0.48182216 9.9978099 -0.48182216 14.25 1.5625 C16 4 16 4 15.9375 7.5625 C15 11 15 11 13 14 C13.80161791 16.67145537 13.80161791 16.67145537 15 19 C13.125 18.6875 13.125 18.6875 11 18 C10.34 17.01 9.68 16.02 9 15 C6.43717258 14.27034634 6.43717258 14.27034634 4 14 C4 15.98 4 17.96 4 20 C2.68 20 1.36 20 0 20 C0 13.4 0 6.8 0 0 Z " fill="#4BC038" transform="translate(566,921)"/>
<path d="M0 0 C9.9978099 -0.48182216 9.9978099 -0.48182216 14.25 1.5625 C16 4 16 4 15.9375 7.5625 C15 11 15 11 13 14 C13.3121764 16.64632287 13.3121764 16.64632287 14 19 C10.125 17.25 10.125 17.25 9 15 C5.97065509 14.34227572 5.97065509 14.34227572 3 14 C3 15.65 3 17.3 3 19 C2.01 19 1.02 19 0 19 C0 12.73 0 6.46 0 0 Z " fill="#54D33A" transform="translate(686,921)"/>
<path d="M0 0 C10.33702882 -0.3691796 10.33702882 -0.3691796 13.3359375 1.30078125 C15 3 15 3 15.375 6.375 C15 10 15 10 13.875 12.625 C12.70497393 15.05784376 12.70497393 15.05784376 13.875 17.8125 C14.431875 18.8953125 14.431875 18.8953125 15 20 C13.125 19.8125 13.125 19.8125 11 19 C9.75 16.4375 9.75 16.4375 9 14 C7.02 14 5.04 14 3 14 C3 15.65 3 17.3 3 19 C2.01 19 1.02 19 0 19 C0 12.73 0 6.46 0 0 Z " fill="#57E240" transform="translate(845,921)"/>
<path d="M0 0 C0.99 0 1.98 0 3 0 C4.65 3.96 6.3 7.92 8 12 C9.32 8.04 10.64 4.08 12 0 C13.32 0 14.64 0 16 0 C17.32 4.29 18.64 8.58 20 13 C20.45375 11.5975 20.9075 10.195 21.375 8.75 C22.36783204 5.68124642 23.49439503 2.85410334 25 0 C25.99 0 26.98 0 28 0 C26.12275039 6.37732315 24.14328358 12.70695459 22 19 C20.68 19 19.36 19 18 19 C16.68 15.04 15.36 11.08 14 7 C12.68 10.96 11.36 14.92 10 19 C8.35 19 6.7 19 5 19 C4.16338138 16.2092793 3.33057263 13.41751988 2.5 10.625 C2.26152344 9.8309375 2.02304687 9.036875 1.77734375 8.21875 C1.55175781 7.45820312 1.32617188 6.69765625 1.09375 5.9140625 C0.88427734 5.2123291 0.67480469 4.5105957 0.45898438 3.78759766 C0 2 0 2 0 0 Z " fill="#55DC3F" transform="translate(619,921)"/>
<path d="M0 0 C10.19694397 -0.48556876 10.19694397 -0.48556876 13.6875 1.625 C15.41943247 4.75897304 15.6612339 6.4734192 15 10 C12.9375 12.375 12.9375 12.375 10 14 C6.1875 14.25 6.1875 14.25 3 14 C3 15.65 3 17.3 3 19 C2.01 19 1.02 19 0 19 C0 12.73 0 6.46 0 0 Z " fill="#50CC34" transform="translate(365,921)"/>
<path d="M0 0 C14.52 0 29.04 0 44 0 C44 0.66 44 1.32 44 2 C30.8 2.33 17.6 2.66 4 3 C3.23882907 6.80585466 2.89711821 9.5118003 2.97265625 13.28125 C2.98619141 14.28285156 2.99972656 15.28445313 3.01367188 16.31640625 C3.02978516 17.36699219 3.04589844 18.41757812 3.0625 19.5 C3.14124192 28.22460464 2.87105779 36.44659298 1 45 C0.67 45 0.34 45 0 45 C0 30.15 0 15.3 0 0 Z " fill="#44B72C" transform="translate(748,617)"/>
<path d="M0 0 C4.62 0 9.24 0 14 0 C14 0.99 14 1.98 14 3 C10.7 3 7.4 3 4 3 C4 4.65 4 6.3 4 8 C6.97 8 9.94 8 13 8 C13 9.32 13 10.64 13 12 C10.03 12 7.06 12 4 12 C4 13.32 4 14.64 4 16 C7.3 16 10.6 16 14 16 C14 17.32 14 18.64 14 20 C9.38 20 4.76 20 0 20 C0 13.4 0 6.8 0 0 Z " fill="#379626" transform="translate(338,921)"/>
<path d="M0 0 C2.26171875 0.0078125 2.26171875 0.0078125 5 1 C6.7010705 3.44164618 7.72567364 6.11594854 8.8125 8.875 C9.12380859 9.60847656 9.43511719 10.34195313 9.75585938 11.09765625 C11.03659025 14.18829911 12 16.62523317 12 20 C10.68 20 9.36 20 8 20 C7.67 18.68 7.34 17.36 7 16 C3.7 15.67 0.4 15.34 -3 15 C-3.33 16.32 -3.66 17.64 -4 19 C-4.99 19 -5.98 19 -7 19 C-6.33392561 14.59041892 -4.73375271 10.73427814 -2.9375 6.6875 C-2.65583984 6.04232422 -2.37417969 5.39714844 -2.08398438 4.73242188 C-1.3937257 3.15301642 -0.69746802 1.57623507 0 0 Z " fill="#5CEA47" transform="translate(454,921)"/>
<path d="M0 0 C1.87988281 0.29541016 1.87988281 0.29541016 4 1 C5.4500783 3.46984881 6.62021639 5.76631509 7.75 8.375 C8.06582031 9.06078125 8.38164063 9.7465625 8.70703125 10.453125 C10.05486384 13.45219839 11 15.67828502 11 19 C9.68 19 8.36 19 7 19 C6.67 18.01 6.34 17.02 6 16 C2.7 15.67 -0.6 15.34 -4 15 C-4.33 16.32 -4.66 17.64 -5 19 C-5.99 19 -6.98 19 -8 19 C-6.00386732 12.2813095 -3.2708579 6.19265192 0 0 Z " fill="#5AEB48" transform="translate(663,921)"/>
<path d="M0 0 C4.88147688 1.22036922 5.46258112 2.52074263 8.25 6.5625 C8.95640625 7.57441406 9.6628125 8.58632813 10.390625 9.62890625 C10.92171875 10.41136719 11.4528125 11.19382812 12 12 C12.33 8.04 12.66 4.08 13 0 C13.99 0 14.98 0 16 0 C16 6.6 16 13.2 16 20 C11.30521094 18.82630273 10.85363494 17.9401358 8.25 14.0625 C7.32960938 12.71865234 7.32960938 12.71865234 6.390625 11.34765625 C5 9 5 9 5 7 C4.34 7 3.68 7 3 7 C3 10.96 3 14.92 3 19 C2.01 19 1.02 19 0 19 C0 12.73 0 6.46 0 0 Z " fill="#5BD746" transform="translate(506,921)"/>
<path d="M0 0 C0.33 0 0.66 0 1 0 C1.33 8.91 1.66 17.82 2 27 C2.33 27 2.66 27 3 27 C3 43.83 3 60.66 3 78 C3.99 78 4.98 78 6 78 C6 78.66 6 79.32 6 80 C4.02 80 2.04 80 0 80 C0 53.6 0 27.2 0 0 Z " fill="#308C2D" transform="translate(966,818)"/>
<path d="M0 0 C1.17755859 0.02320313 1.17755859 0.02320313 2.37890625 0.046875 C4.4375 0.25 4.4375 0.25 6.4375 1.25 C6.4375 2.24 6.4375 3.23 6.4375 4.25 C3.1375 3.92 -0.1625 3.59 -3.5625 3.25 C-3.5625 4.57 -3.5625 5.89 -3.5625 7.25 C-1.9228125 7.683125 -1.9228125 7.683125 -0.25 8.125 C3.4375 9.25 3.4375 9.25 6.4375 11.25 C6.875 13.6875 6.875 13.6875 6.4375 16.25 C5 18.0625 5 18.0625 2.4375 19.25 C-0.58021016 19.4889237 -3.54256841 19.42422682 -6.5625 19.25 C-7.2225 17.93 -7.8825 16.61 -8.5625 15.25 C-4.77543268 15.25 -1.29736879 15.6754048 2.4375 16.25 C2.29092916 14.28385733 2.29092916 14.28385733 1.4375 12.25 C-0.64284294 11.1124787 -0.64284294 11.1124787 -3.125 10.5 C-3.95128906 10.25765625 -4.77757812 10.0153125 -5.62890625 9.765625 C-6.26699219 9.59546875 -6.90507812 9.4253125 -7.5625 9.25 C-7.92896567 3.75301498 -7.92896567 3.75301498 -6.3359375 1.56640625 C-4.07399488 -0.11261283 -2.78874949 -0.09188631 0 0 Z " fill="#55D941" transform="translate(294.5625,920.75)"/>
<path d="M0 0 C2.4375 1.5625 2.4375 1.5625 4 4 C3.78571429 10.21428571 3.78571429 10.21428571 1 13 C-1.93188861 13.27922749 -4.15390647 13.47143881 -7 13 C-9.45636081 10.92744557 -9.88864581 9.63630966 -10.4375 6.5 C-9.41545969 0.65976965 -5.50319355 -0.91719892 0 0 Z " fill="#051104" transform="translate(797,924)"/>
<path d="M0 0 C4.29 0 8.58 0 13 0 C13 0.99 13 1.98 13 3 C9.7 3 6.4 3 3 3 C3 4.65 3 6.3 3 8 C5.97 8 8.94 8 12 8 C12 8.99 12 9.98 12 11 C9.03 11 6.06 11 3 11 C3 12.65 3 14.3 3 16 C6.63 16 10.26 16 14 16 C14 16.99 14 17.98 14 19 C9.38 19 4.76 19 0 19 C0 12.73 0 6.46 0 0 Z " fill="#52D239" transform="translate(595,921)"/>
<path d="M0 0 C4.62 0 9.24 0 14 0 C14 0.99 14 1.98 14 3 C10.7 3 7.4 3 4 3 C4 4.65 4 6.3 4 8 C6.97 8 9.94 8 13 8 C13 9.32 13 10.64 13 12 C10.03 12 7.06 12 4 12 C4 14.64 4 17.28 4 20 C2.68 19.67 1.36 19.34 0 19 C0 12.73 0 6.46 0 0 Z " fill="#329323" transform="translate(948,921)"/>
<path d="M0 0 C5.05609333 3.75965914 8.72007416 8.19496717 12.64453125 13.10546875 C14.85342002 15.81987435 17.13963081 18.41718764 19.5 21 C23.41891252 25.29991791 27.09170869 29.75919547 30.75 34.28125 C32.93501569 36.92147729 35.19171391 39.4672972 37.5 42 C40.73770774 45.56831875 43.90465227 49.18213261 47 52.875 C47.7425 53.75929688 48.485 54.64359375 49.25 55.5546875 C50.87444595 57.82456063 51.59451189 59.27562676 52 62 C45.13753615 55.35890596 38.89746846 48.09378376 32.640625 40.88671875 C31.51343809 39.5904538 30.37750483 38.30175874 29.234375 37.01953125 C28.68265625 36.39433594 28.1309375 35.76914062 27.5625 35.125 C27.06878906 34.57070313 26.57507813 34.01640625 26.06640625 33.4453125 C25 32 25 32 25 30 C24.34 30 23.68 30 23 30 C21.6328125 28.35546875 21.6328125 28.35546875 20.125 26.1875 C18.51251395 23.87007895 17.2014262 22.15011953 14.9296875 20.45703125 C12.88545626 18.91351252 12.11545087 17.77073927 11 15.5 C9.40814079 12.49947173 7.83755111 10.92548111 5 9 C5 8.34 5 7.68 5 7 C4.34 7 3.68 7 3 7 C3 6.01 3 5.02 3 4 C2.01 3.67 1.02 3.34 0 3 C0 2.01 0 1.02 0 0 Z " fill="#7BDB50" transform="translate(509,355)"/>
<path d="M0 0 C1.32 0 2.64 0 4 0 C4.33 4.95 4.66 9.9 5 15 C7.31 15 9.62 15 12 15 C13.94090826 13.05909174 13.39919435 9.52706098 13.5625 6.9375 C13.64628906 5.64714844 13.73007812 4.35679687 13.81640625 3.02734375 C13.87699219 2.02832031 13.93757812 1.02929688 14 0 C14.99 0 15.98 0 17 0 C17.77306542 12.69545211 17.77306542 12.69545211 15 17.375 C10.79691034 19.65167357 8.74872357 19.75376565 4 19 C0.97390683 16.17529306 0.06555965 14.59593725 -0.390625 10.44921875 C-0.34421875 9.20785156 -0.2978125 7.96648438 -0.25 6.6875 C-0.21390625 5.43324219 -0.1778125 4.17898438 -0.140625 2.88671875 C-0.07101562 1.45779297 -0.07101562 1.45779297 0 0 Z " fill="#51CC40" transform="translate(815,921)"/>
<path d="M0 0 C0.66 0.33 1.32 0.66 2 1 C2 1.99 2 2.98 2 4 C-0.64 4 -3.28 4 -6 4 C-5.67 4.99 -5.34 5.98 -5 7 C-2.69747517 8.06902939 -0.3627974 9.07175817 2 10 C3 11 3 11 3.1875 13.9375 C3 17 3 17 1 19 C-1.27734375 19.265625 -1.27734375 19.265625 -3.9375 19.25 C-4.81277344 19.25515625 -5.68804688 19.2603125 -6.58984375 19.265625 C-9 19 -9 19 -12 17 C-11.505 15.515 -11.505 15.515 -11 14 C-7.37 14.66 -3.74 15.32 0 16 C-0.33 15.01 -0.66 14.02 -1 13 C-3.31104818 11.94952356 -5.64583651 10.94992562 -8 10 C-10 8 -10 8 -10.3125 5.5625 C-10 3 -10 3 -8.9375 1.1875 C-5.97227476 -0.62989611 -3.39514655 -0.24691975 0 0 Z " fill="#56D63F" transform="translate(883,921)"/>
<path d="M0 0 C6.50316605 0.38645864 12.08715508 1.22324962 18 4 C19.28197266 4.60134766 19.28197266 4.60134766 20.58984375 5.21484375 C27.74347973 8.83681091 33.29000992 13.41331535 39 19 C39.73476563 19.70769531 40.46953125 20.41539062 41.2265625 21.14453125 C45.05857923 24.89761131 48.85937258 28.64364584 52 33 C51.67 33.99 51.34 34.98 51 36 C46.2266717 31.47789951 46.2266717 31.47789951 45.0625 29.0234375 C43.82410289 26.66501947 42.45899301 25.51303566 40.375 23.875 C38.4609375 22.3671875 38.4609375 22.3671875 37 21 C37 20.34 37 19.68 37 19 C36.38125 18.7525 35.7625 18.505 35.125 18.25 C32.64931313 16.79371361 32.04874998 15.62187494 31 13 C30.01 13 29.02 13 28 13 C28 12.34 28 11.68 28 11 C25.525 10.505 25.525 10.505 23 10 C23 9.34 23 8.68 23 8 C20.03 7.34 17.06 6.68 14 6 C14 5.34 14 4.68 14 4 C13.01 4.33 12.02 4.66 11 5 C9 4.33333333 7 3.66666667 5 3 C1.74955291 2.83201531 1.74955291 2.83201531 -1 3 C-0.67 2.01 -0.34 1.02 0 0 Z " fill="#A0EA62" transform="translate(456,319)"/>
<path d="M0 0 C4.62 0 9.24 0 14 0 C14 0.99 14 1.98 14 3 C10.37 3 6.74 3 3 3 C3 4.98 3 6.96 3 9 C5.97 9 8.94 9 12 9 C12 9.66 12 10.32 12 11 C9.03 11 6.06 11 3 11 C3 12.98 3 14.96 3 17 C6.63 17 10.26 17 14 17 C14 17.66 14 18.32 14 19 C9.38 19 4.76 19 0 19 C0 12.73 0 6.46 0 0 Z " fill="#62E946" transform="translate(422,921)"/>
<path d="M0 0 C4.62 0 9.24 0 14 0 C14 0.99 14 1.98 14 3 C10.37 3 6.74 3 3 3 C3 4.98 3 6.96 3 9 C5.97 9 8.94 9 12 9 C12 9.66 12 10.32 12 11 C9.03 11 6.06 11 3 11 C3 12.98 3 14.96 3 17 C6.3 17 9.6 17 13 17 C13 17.66 13 18.32 13 19 C8.71 19 4.42 19 0 19 C0 12.73 0 6.46 0 0 Z " fill="#59E03D" transform="translate(899,921)"/>
<path d="M0 0 C6.8359375 -0.1953125 6.8359375 -0.1953125 9 0 C11 2 11 2 11.3125 4.875 C11 8 11 8 10 10.375 C6.82368122 12.95575901 4.00554268 12.26265854 0 12 C0 8.04 0 4.08 0 0 Z " fill="#040D03" transform="translate(718,925)"/>
<path d="M0 0 C5.28 0 10.56 0 16 0 C16 0.99 16 1.98 16 3 C14.02 3 12.04 3 10 3 C10 8.61 10 14.22 10 20 C8.68 20 7.36 20 6 20 C6 14.39 6 8.78 6 3 C4.02 3 2.04 3 0 3 C0 2.01 0 1.02 0 0 Z " fill="#39A22B" transform="translate(311,921)"/>
<path d="M0 0 C1.32 0 2.64 0 4 0 C4 5.28 4 10.56 4 16 C6.64 16 9.28 16 12 16 C12 17.32 12 18.64 12 20 C8.04 20 4.08 20 0 20 C0 13.4 0 6.8 0 0 Z " fill="#2F8826" transform="translate(925,921)"/>
<path d="M0 0 C0 0.66 0 1.32 0 2 C-1.22074219 1.95359375 -2.44148437 1.9071875 -3.69921875 1.859375 C-18.19072527 1.47118329 -29.95427249 2.69543602 -41 13 C-42.00787808 13.99205936 -43.01080987 14.98930574 -44 16 C-44.33 15.34 -44.66 14.68 -45 14 C-39.63904636 6.74401159 -31.69613 1.72703019 -22.95703125 -0.57421875 C-15.78387009 -1.60707815 -6.89950086 -2.29983362 0 0 Z " fill="#69DE4D" transform="translate(1019,788)"/>
<path d="M0 0 C0.99 0 1.98 0 3 0 C7 6.75 7 6.75 7 9 C9.14014948 7.07386546 10.47433788 5.26693237 12.0625 2.8125 C12.701875 1.884375 13.34125 0.95625 14 0 C14.66 0 15.32 0 16 0 C15.5127628 4.01970694 14.00473923 6.65977678 11.921875 10.0859375 C10.36746612 13.31331188 10.24903416 16.45126319 10 20 C8.68 19.67 7.36 19.34 6 19 C5.85304688 18.03900391 5.85304688 18.03900391 5.703125 17.05859375 C4.68724966 11.18228035 3.15104904 7.04167846 0 2 C0 1.34 0 0.68 0 0 Z " fill="#4ED240" transform="translate(758,921)"/>
<path d="M0 0 C0.495 0.99 0.495 0.99 1 2 C0.34 2.66 -0.32 3.32 -1 4 C-2.0725 3.835 -3.145 3.67 -4.25 3.5 C-8.34407811 2.95412292 -10.22641295 3.47450736 -14 5 C-14.969375 5.309375 -15.93875 5.61875 -16.9375 5.9375 C-23.41527167 8.18489017 -28.55923977 10.89167085 -34 15 C-34.33 14.34 -34.66 13.68 -35 13 C-26.43921741 3.01242031 -12.74361194 -0.73207984 0 0 Z " fill="#A7ED65" transform="translate(817,319)"/>
<path d="M0 0 C0.495 1.485 0.495 1.485 1 3 C-0.66567238 5.56841818 -2.36274117 7.91469751 -4.25 10.3125 C-4.7955957 11.02164551 -5.34119141 11.73079102 -5.90332031 12.46142578 C-7.59154343 14.64948388 -9.29421324 16.82561775 -11 19 C-11.98986655 20.27191506 -12.97946507 21.54403877 -13.96875 22.81640625 C-16.62779173 26.22535128 -19.30929767 29.6160138 -22 33 C-22.75539063 33.95132813 -23.51078125 34.90265625 -24.2890625 35.8828125 C-26.18496339 38.26156455 -28.09132097 40.63150284 -30 43 C-30.75796875 43.96292969 -30.75796875 43.96292969 -31.53125 44.9453125 C-32.64237077 46.33421346 -33.81399793 47.67446828 -35 49 C-35.66 49 -36.32 49 -37 49 C-35.3366066 44.98256448 -32.53754332 42.01982147 -29.6875 38.8125 C-18.96450049 26.51653228 -9.36826643 13.34396415 0 0 Z " fill="#135721" transform="translate(546,629)"/>
<path d="M0 0 C0.66 0.33 1.32 0.66 2 1 C1.67 13.87 1.34 26.74 1 40 C-0.32 39.67 -1.64 39.34 -3 39 C-2.8453125 37.99839844 -2.690625 36.99679687 -2.53125 35.96484375 C-1.59793504 28.50982621 -1.63364104 20.95747645 -1.44775391 13.45336914 C-1.39623868 11.42844284 -1.33884501 9.40366874 -1.28125 7.37890625 C-1.25095703 6.1782251 -1.22066406 4.97754395 -1.18945312 3.74047852 C-1 1 -1 1 0 0 Z " fill="#31962E" transform="translate(983,858)"/>
<path d="M0 0 C1.32 1.32 2.64 2.64 4 4 C4.66 3.67 5.32 3.34 6 3 C6.67354499 4.43429001 7.33859701 5.87257057 8 7.3125 C8.37125 8.11300781 8.7425 8.91351562 9.125 9.73828125 C10 12 10 12 10 15 C8.68 15 7.36 15 6 15 C5.67 13.68 5.34 12.36 5 11 C2.03 10.67 -0.94 10.34 -4 10 C-3.52449439 8.51965236 -3.04448784 7.04074979 -2.5625 5.5625 C-2.29566406 4.73878906 -2.02882813 3.91507813 -1.75390625 3.06640625 C-1 1 -1 1 0 0 Z " fill="#4BC638" transform="translate(456,926)"/>
<path d="M0 0 C0.66 0 1.32 0 2 0 C2 24.09 2 48.18 2 73 C1.67 73 1.34 73 1 73 C0.67 50.89 0.34 28.78 0 6 C-1.32 6.33 -2.64 6.66 -4 7 C-2.68 4.69 -1.36 2.38 0 0 Z " fill="#2B2A2C" transform="translate(302,795)"/>
<path d="M0 0 C2.31 0 4.62 0 7 0 C7 0.33 7 0.66 7 1 C5.35 1 3.7 1 2 1 C2 5.95 2 10.9 2 16 C7.81520607 15.86654711 7.81520607 15.86654711 12.375 12.6875 C13.70370109 10.49003281 14.95745403 8.34572843 16 6 C16.48826291 13.32394366 16.48826291 13.32394366 14.375 16.25 C10.03448699 19.44827274 5.21181181 18.22660051 0 18 C0 12.06 0 6.12 0 0 Z " fill="#6DF251" transform="translate(715,922)"/>
<path d="M0 0 C0.433125 0.495 0.86625 0.99 1.3125 1.5 C2.99740483 3.33218192 2.99740483 3.33218192 6 3 C6.67408308 4.26691507 7.33900497 5.53870749 8 6.8125 C8.556875 7.87404297 8.556875 7.87404297 9.125 8.95703125 C10 11 10 11 10 14 C8.68 14 7.36 14 6 14 C5.67 13.01 5.34 12.02 5 11 C2.03 10.67 -0.94 10.34 -4 10 C-3.52449439 8.51965236 -3.04448784 7.04074979 -2.5625 5.5625 C-2.29566406 4.73878906 -2.02882813 3.91507813 -1.75390625 3.06640625 C-1 1 -1 1 0 0 Z " fill="#48C538" transform="translate(664,926)"/>
<path d="M0 0 C3.96 0 7.92 0 12 0 C12 0.33 12 0.66 12 1 C8.37 1 4.74 1 1 1 C1.33 2.98 1.66 4.96 2 7 C4.97 7.33 7.94 7.66 11 8 C11 8.66 11 9.32 11 10 C8.03 10 5.06 10 2 10 C2 11.98 2 13.96 2 16 C5.63 16 9.26 16 13 16 C13 16.66 13 17.32 13 18 C8.71 18 4.42 18 0 18 C0 12.06 0 6.12 0 0 Z " fill="#65F645" transform="translate(339,922)"/>
<path d="M0 0 C-4.52054795 3.76712329 -4.52054795 3.76712329 -7.1875 5.0625 C-9.34509852 5.99309803 -9.34509852 5.99309803 -11 9 C-11.70645247 13.38000534 -12.13879932 17.55842189 -12 22 C-11.34 22 -10.68 22 -10 22 C-8.61767557 23.62626404 -7.28062485 25.2925002 -6 27 C-9.12981912 26.66466224 -10.00061159 25.99933599 -12.1875 23.625 C-15.1612174 19.31823687 -15.70073698 15.12900542 -15 10 C-11.56585286 3.38608699 -7.71730304 -0.71788865 0 0 Z " fill="#5BCB4B" transform="translate(828,498)"/>
<path d="M0 0 C4 1 4 1 5.75 2.875 C7 5 7 5 7 8 C5.68 7.67 4.36 7.34 3 7 C3 10.96 3 14.92 3 19 C2.01 19 1.02 19 0 19 C0 12.73 0 6.46 0 0 Z " fill="#5DED45" transform="translate(506,921)"/>
<path d="M0 0 C6.0546875 -0.1953125 6.0546875 -0.1953125 8 0 C8.66 0.66 9.32 1.32 10 2 C9.44444444 6.55555556 9.44444444 6.55555556 8 8 C5.32941149 8.14115161 2.67567762 8.04247107 0 8 C0 5.36 0 2.72 0 0 Z " fill="#0C280A" transform="translate(569,924)"/>
<path d="M0 0 C1.17755859 0.02320313 1.17755859 0.02320313 2.37890625 0.046875 C4.4375 0.25 4.4375 0.25 6.4375 1.25 C6.4375 2.24 6.4375 3.23 6.4375 4.25 C3.1375 3.92 -0.1625 3.59 -3.5625 3.25 C-3.5625 4.57 -3.5625 5.89 -3.5625 7.25 C-0.5925 7.745 -0.5925 7.745 2.4375 8.25 C0.8125 9.875 0.8125 9.875 -1.5625 11.25 C-4.8125 10.4375 -4.8125 10.4375 -7.5625 9.25 C-7.92896567 3.75301498 -7.92896567 3.75301498 -6.3359375 1.56640625 C-4.07399488 -0.11261283 -2.78874949 -0.09188631 0 0 Z " fill="#49CA33" transform="translate(294.5625,920.75)"/>
<path d="M0 0 C0.99 0.33 1.98 0.66 3 1 C2.5153125 1.46148437 2.030625 1.92296875 1.53125 2.3984375 C-3.80524033 7.59125309 -8.41961606 13.14023376 -13 19 C-14.65058644 21.01427498 -16.32252704 23.00800086 -18 25 C-18.33 24.01 -18.66 23.02 -19 22 C-17.4343077 19.62581919 -15.8590691 17.50095855 -14.0625 15.3125 C-13.31166138 14.37736572 -13.31166138 14.37736572 -12.5456543 13.42333984 C-8.65695006 8.64421107 -4.53142848 4.18085952 0 0 Z " fill="#96EB63" transform="translate(777,335)"/>
<path d="M0 0 C5.61 0 11.22 0 17 0 C17 9.57 17 19.14 17 29 C16.67 29 16.34 29 16 29 C16 20.42 16 11.84 16 3 C10.39 3 4.78 3 -1 3 C-0.67 2.01 -0.34 1.02 0 0 Z " fill="#4CBB3B" transform="translate(844,572)"/>
<path d="M0 0 C0.99 0 1.98 0 3 0 C4.65 4.62 6.3 9.24 8 14 C8.66 13.67 9.32 13.34 10 13 C10 14.98 10 16.96 10 19 C8.35 19 6.7 19 5 19 C4.16338138 16.2092793 3.33057263 13.41751988 2.5 10.625 C2.26152344 9.8309375 2.02304687 9.036875 1.77734375 8.21875 C1.55175781 7.45820312 1.32617188 6.69765625 1.09375 5.9140625 C0.88427734 5.2123291 0.67480469 4.5105957 0.45898438 3.78759766 C0 2 0 2 0 0 Z " fill="#64E24F" transform="translate(619,921)"/>
<path d="M0 0 C6.15234375 -0.09765625 6.15234375 -0.09765625 8 0 C9 1 9 1 9.125 4 C9 7 9 7 8 8 C5.32941149 8.14115161 2.67567762 8.04247107 0 8 C0 5.36 0 2.72 0 0 Z " fill="#0A1F08" transform="translate(689,924)"/>
<path d="M0 0 C6.15234375 -0.09765625 6.15234375 -0.09765625 8 0 C8.33 0.33 8.66 0.66 9 1 C8.71269945 3.33944736 8.38063221 5.6739143 8 8 C5.36 8 2.72 8 0 8 C0 5.36 0 2.72 0 0 Z " fill="#081E07" transform="translate(848,924)"/>
<path d="M0 0 C0.671875 1.7421875 0.671875 1.7421875 1 4 C-0.046875 5.9453125 -0.046875 5.9453125 -1.75 8.125 C-5.9261291 13.73510115 -9.47369656 19.6372931 -13.00292969 25.66650391 C-15.61796179 30.04729809 -18.21075341 33.57326256 -22 37 C-20.30655619 32.11320501 -17.64870247 27.93206467 -14.9375 23.5625 C-14.4530542 22.77568848 -13.9686084 21.98887695 -13.46948242 21.17822266 C-9.07154008 14.05952548 -4.56570412 7.01201967 0 0 Z " fill="#42A939" transform="translate(660,498)"/>
<path d="M0 0 C0.66 0 1.32 0 2 0 C2.38218767 1.65614657 2.71395102 3.32457024 3 5 C2.67 5.33 2.34 5.66 2 6 C1.87709282 7.65644366 1.82216092 9.31798993 1.79467773 10.97875977 C1.77473251 12.03978409 1.75478729 13.10080841 1.73423767 14.19398499 C1.71752518 15.348134 1.70081268 16.50228302 1.68359375 17.69140625 C1.66281265 18.86638168 1.64203156 20.04135712 1.62062073 21.25193787 C1.55499876 25.02206324 1.4961817 28.79226082 1.4375 32.5625 C1.3943268 35.11133573 1.35071292 37.66016403 1.30664062 40.20898438 C1.19930455 46.47257892 1.0975621 52.73624601 1 59 C0.67 59 0.34 59 0 59 C0 39.53 0 20.06 0 0 Z " fill="#55C648" transform="translate(967,816)"/>
<path d="M0 0 C9.27734375 -0.09765625 9.27734375 -0.09765625 12 0 C13 1 13 1 13.0625 4.5625 C13.041875 5.696875 13.02125 6.83125 13 8 C12.690625 7.360625 12.38125 6.72125 12.0625 6.0625 C11.1654837 4.06389179 11.1654837 4.06389179 10 3 C8.65252916 2.76924918 7.29622435 2.58846937 5.9375 2.4375 C4.638125 2.293125 3.33875 2.14875 2 2 C2.33 4.64 2.66 7.28 3 10 C4.65 10.33 6.3 10.66 8 11 C8 11.33 8 11.66 8 12 C5.69 12 3.38 12 1 12 C1 13.98 1 15.96 1 18 C0.67 18 0.34 18 0 18 C0 12.06 0 6.12 0 0 Z " fill="#5FE83F" transform="translate(567,922)"/>
<path d="M0 0 C5.61 0 11.22 0 17 0 C17 6.6 17 13.2 17 20 C16.34 19.67 15.68 19.34 15 19 C15 13.06 15 7.12 15 1 C9.06 1.495 9.06 1.495 3 2 C2.03813069 5.84747723 1.69340973 9.30167852 1.4375 13.25 C1.35371094 14.51328125 1.26992188 15.7765625 1.18359375 17.078125 C1.12300781 18.04234375 1.06242188 19.0065625 1 20 C0.67 20 0.34 20 0 20 C0 13.4 0 6.8 0 0 Z " fill="#70E952" transform="translate(815,768)"/>
<path d="M0 0 C3.375 -0.125 3.375 -0.125 7 0 C7.66 0.66 8.32 1.32 9 2 C8.44444444 6.55555556 8.44444444 6.55555556 7 8 C4.66702567 8.04092937 2.33294775 8.04241723 0 8 C0 5.36 0 2.72 0 0 Z " fill="#081B06" transform="translate(368,924)"/>
<path d="M0 0 C2.37877895 2.37877895 2.25582782 2.87916197 2.265625 6.11328125 C2.26949219 6.94375977 2.27335938 7.77423828 2.27734375 8.62988281 C2.26832031 9.51514648 2.25929688 10.40041016 2.25 11.3125 C2.24613281 12.20936523 2.24226562 13.10623047 2.23828125 14.03027344 C2.14606975 21.17410355 1.43264977 27.99024934 0 35 C-0.33 35 -0.66 35 -1 35 C-1.10902914 23.28188331 -1.09908609 11.6777897 0 0 Z " fill="#3F9E36" transform="translate(749,627)"/>
<path d="M0 0 C0 0.99 0 1.98 0 3 C-11.20231741 7.2482829 -21.79768259 7.2482829 -33 3 C-32.67 2.34 -32.34 1.68 -32 1 C-31.45214844 1.144375 -30.90429688 1.28875 -30.33984375 1.4375 C-20.53350875 3.73361746 -9.01301554 5.27591154 0 0 Z " fill="#36982C" transform="translate(772,850)"/>
<path d="M0 0 C0.66 0.33 1.32 0.66 2 1 C2 1.99 2 2.98 2 4 C-0.64 4 -3.28 4 -6 4 C-5.67 4.99 -5.34 5.98 -5 7 C-4.34 7.33 -3.68 7.66 -3 8 C-3 8.66 -3 9.32 -3 10 C-5.375 10.125 -5.375 10.125 -8 10 C-10 8 -10 8 -10.3125 5.5625 C-10 3 -10 3 -8.9375 1.1875 C-5.97227476 -0.62989611 -3.39514655 -0.24691975 0 0 Z " fill="#4FD73B" transform="translate(883,921)"/>
<path d="M0 0 C5 2 5 2 6 3 C6.4640884 8.33701657 6.4640884 8.33701657 4.6875 10.875 C3 12 3 12 0 12 C0 8.04 0 4.08 0 0 Z " fill="#020802" transform="translate(838,531)"/>
<path d="M0 0 C0 3.96 0 7.92 0 12 C-4 11 -4 11 -6 9 C-6.55408971 3.79155673 -6.55408971 3.79155673 -4.6875 1.125 C-3 0 -3 0 0 0 Z " fill="#061304" transform="translate(830,506)"/>
<path d="M0 0 C0.99 0 1.98 0 3 0 C3.10823773 2.24893954 3.18569645 4.49937575 3.25 6.75 C3.29640625 8.00296875 3.3428125 9.2559375 3.390625 10.546875 C3 14 3 14 1.21875 16.46875 C-1 18 -1 18 -4.75 17.75 C-5.8225 17.5025 -6.895 17.255 -8 17 C-8 16.67 -8 16.34 -8 16 C-5.69 15.34 -3.38 14.68 -1 14 C-0.67 9.38 -0.34 4.76 0 0 Z " fill="#61E24A" transform="translate(829,921)"/>
<path d="M0 0 C3.375 -0.125 3.375 -0.125 7 0 C7.66 0.66 8.32 1.32 9 2 C8.625 4.625 8.625 4.625 8 7 C5.36 7 2.72 7 0 7 C0 4.69 0 2.38 0 0 Z " fill="#041103" transform="translate(481,924)"/>
<path d="M0 0 C7.2031219 -0.47667718 13.08520189 -0.49225173 19 4 C23.26087543 8.10930279 27.84420161 12.57243533 28.125 18.75 C28.08375 19.4925 28.0425 20.235 28 21 C27.72285156 20.43152344 27.44570313 19.86304688 27.16015625 19.27734375 C23.22480856 11.55240199 19.36143999 6.08053052 11 3 C7.35357839 2.10488358 3.72437213 1.4664167 0 1 C0 0.67 0 0.34 0 0 Z " fill="#5BD044" transform="translate(605,467)"/>
<path d="M0 0 C3.63 0 7.26 0 11 0 C10.33333333 2.66666667 9.66666667 5.33333333 9 8 C9 7.34 9 6.68 9 6 C6.03 6 3.06 6 0 6 C0 4.02 0 2.04 0 0 Z " fill="#0C2908" transform="translate(902,924)"/>
<path d="M0 0 C0.66 0.33 1.32 0.66 2 1 C-15.82599478 13.263273 -15.82599478 13.263273 -25 14 C-27.26171875 13.5390625 -27.26171875 13.5390625 -29 13 C-27.35064453 12.45472656 -27.35064453 12.45472656 -25.66796875 11.8984375 C-11.84173614 7.74334672 -11.84173614 7.74334672 0 0 Z " fill="#185728" transform="translate(552,674)"/>
<path d="M0 0 C3.96 0 7.92 0 12 0 C12 0.33 12 0.66 12 1 C8.7 1 5.4 1 2 1 C2 3.64 2 6.28 2 9 C6.455 8.505 6.455 8.505 11 8 C11 8.66 11 9.32 11 10 C8.03 10 5.06 10 2 10 C2 12.64 2 15.28 2 18 C1.34 18 0.68 18 0 18 C0 12.06 0 6.12 0 0 Z " fill="#64F347" transform="translate(949,922)"/>
<path d="M0 0 C2.64 0 5.28 0 8 0 C8 0.33 8 0.66 8 1 C6.02 1 4.04 1 2 1 C2.33 3.97 2.66 6.94 3 10 C4.65 10.33 6.3 10.66 8 11 C8 11.33 8 11.66 8 12 C6.35 12 4.7 12 3 12 C3 13.98 3 15.96 3 18 C2.01 18 1.02 18 0 18 C0 12.06 0 6.12 0 0 Z " fill="#6DFC4D" transform="translate(365,922)"/>
<path d="M0 0 C13.53 0 27.06 0 41 0 C41 0.33 41 0.66 41 1 C40.00669678 1.01981934 39.01339355 1.03963867 37.98999023 1.06005859 C34.27913506 1.13654883 30.56864997 1.22519658 26.8581543 1.31738281 C25.25699204 1.35549419 23.65574937 1.39037713 22.05444336 1.421875 C19.74303586 1.46791611 17.43217356 1.52584208 15.12109375 1.5859375 C14.41351425 1.59748871 13.70593475 1.60903992 12.97691345 1.62094116 C8.29618873 1.757677 4.41190296 2.56380086 0 4 C0 2.68 0 1.36 0 0 Z " fill="#AEFB61" transform="translate(415,319)"/>
<path d="M0 0 C9.9 0 19.8 0 30 0 C30 0.33 30 0.66 30 1 C16.635 1.495 16.635 1.495 3 2 C3.33 4.97 3.66 7.94 4 11 C3.01 10.34 2.02 9.68 1 9 C0.67 6.03 0.34 3.06 0 0 Z " fill="#44A836" transform="translate(697,660)"/>
<path d="M0 0 C0.99 0.33 1.98 0.66 3 1 C1.35 2.98 -0.3 4.96 -2 7 C-1.505 7.45375 -1.01 7.9075 -0.5 8.375 C1 10 1 10 1 12 C2.216875 12.144375 3.43375 12.28875 4.6875 12.4375 C7.82670377 12.82780953 10.9075134 13.32351856 14 14 C14 14.66 14 15.32 14 16 C6.14233921 15.68942052 1.65702274 14.65702274 -4 9 C-3.69670231 5.15822926 -2.47524576 2.90572328 0 0 Z " fill="#328F31" transform="translate(816,537)"/>
<path d="M0 0 C1.98 0 3.96 0 6 0 C5.01 0.66 4.02 1.32 3 2 C2.42251197 3.96361864 2.42251197 3.96361864 2.3125 6.125 C2.209375 7.40375 2.10625 8.6825 2 10 C4.31 10 6.62 10 9 10 C6 12 6 12 3 13 C2.67 14.65 2.34 16.3 2 18 C1.34 18 0.68 18 0 18 C0 12.06 0 6.12 0 0 Z " fill="#5FEE43" transform="translate(478,922)"/>
<path d="M0 0 C4.29107165 -0.4206933 6.35134537 -0.45543836 9.9375 2.0625 C12.52001338 5.74062512 12.72125695 7.59231863 12 12 C10.68 13.32 9.36 14.64 8 16 C8 12.04 8 8.08 8 4 C6.68 3.34 5.36 2.68 4 2 C2.66666667 1.33333333 1.33333333 0.66666667 0 0 Z " fill="#5DE246" transform="translate(792,922)"/>
<path d="M0 0 C0 3 0 3 -2.5 5.5625 C-3.325 6.366875 -4.15 7.17125 -5 8 C-5 8.66 -5 9.32 -5 10 C-1.04 10 2.92 10 7 10 C7.33 10.66 7.66 11.32 8 12 C1.73 12 -4.54 12 -11 12 C-11 11.34 -11 10.68 -11 10 C-9.35546875 8.37890625 -9.35546875 8.37890625 -7.1875 6.5625 C-4.68897282 4.45536324 -2.2757944 2.34758602 0 0 Z " fill="#0A2F14" transform="translate(508,678)"/>
<path d="M0 0 C0.66 0 1.32 0 2 0 C2 5.28 2 10.56 2 16 C4.64 16 7.28 16 10 16 C10 16.66 10 17.32 10 18 C6.7 18 3.4 18 0 18 C0 12.06 0 6.12 0 0 Z " fill="#6CF751" transform="translate(926,922)"/>
<path d="M0 0 C5.94 0 11.88 0 18 0 C18 0.66 18 1.32 18 2 C14.38132441 3.2062252 11.07493749 3.10816918 7.3125 3.0625 C6.61060547 3.05798828 5.90871094 3.05347656 5.18554688 3.04882812 C3.45699462 3.03706927 1.72848635 3.01913454 0 3 C0 2.01 0 1.02 0 0 Z " fill="#57C73B" transform="translate(826,572)"/>
<path d="M0 0 C0.66 0.33 1.32 0.66 2 1 C1.835 2.258125 1.67 3.51625 1.5 4.8125 C0.88799419 10.22573447 0.93108951 15.55607139 1 21 C6.28 21.33 11.56 21.66 17 22 C17 22.33 17 22.66 17 23 C11.06 23 5.12 23 -1 23 C-1.02693321 19.72911186 -1.04680664 16.45844478 -1.0625 13.1875 C-1.07087891 12.25873047 -1.07925781 11.32996094 -1.08789062 10.37304688 C-1.09111328 9.48037109 -1.09433594 8.58769531 -1.09765625 7.66796875 C-1.10289307 6.84578857 -1.10812988 6.0236084 -1.11352539 5.17651367 C-1 3 -1 3 0 0 Z " fill="#27762F" transform="translate(749,666)"/>
<path d="M0 0 C4.62 0 9.24 0 14 0 C14 0.33 14 0.66 14 1 C12.02 1 10.04 1 8 1 C8 6.61 8 12.22 8 18 C7.34 18 6.68 18 6 18 C5.67 12.72 5.34 7.44 5 2 C3.35 1.67 1.7 1.34 0 1 C0 0.67 0 0.34 0 0 Z " fill="#74FB55" transform="translate(312,922)"/>
<path d="M0 0 C0.66 0 1.32 0 2 0 C3.625 2 3.625 2 5 4 C3.68 4.33 2.36 4.66 1 5 C1 16.22 1 27.44 1 39 C0.67 39 0.34 39 0 39 C0 26.13 0 13.26 0 0 Z " fill="#012203" transform="translate(984,859)"/>
<path d="M0 0 C-0.6290625 0.3403125 -1.258125 0.680625 -1.90625 1.03125 C-8.22914805 4.61168624 -13.11910451 8.6282882 -18 14 C-18.33 13.01 -18.66 12.02 -19 11 C-6.74311927 -2.02293578 -6.74311927 -2.02293578 0 0 Z " fill="#69DF51" transform="translate(895,791)"/>
<path d="M0 0 C3.64503897 3.59864756 7.16599929 7.28515719 10.625 11.0625 C11.10195313 11.57876953 11.57890625 12.09503906 12.0703125 12.62695312 C17.53620281 18.58629186 17.53620281 18.58629186 19 21 C18.67 21.99 18.34 22.98 18 24 C17.45472656 23.32195312 16.90945313 22.64390625 16.34765625 21.9453125 C11.63081003 16.12383733 6.8145426 10.52950127 1.65234375 5.09375 C0 3 0 3 0 0 Z " fill="#67D14A" transform="translate(542,393)"/>
<path d="M0 0 C0.66 0 1.32 0 2 0 C1.1875 3.4375 1.1875 3.4375 0 7 C-3.62326739 8.2077558 -4.64146369 7.54311128 -8 6 C-8 4.68 -8 3.36 -8 2 C-2.25 1.875 -2.25 1.875 0 3 C0 2.01 0 1.02 0 0 Z " fill="#0A2207" transform="translate(885,922)"/>
<path d="M0 0 C6.04850291 4.49760473 13.38962229 11.05325002 15.76171875 18.33984375 C15.84035156 18.88769531 15.91898438 19.43554688 16 20 C12.23566274 18.74522091 11.83697354 17.08722996 10.05078125 13.71484375 C8.73113022 11.56121251 7.07053775 10.40500776 5 9 C5 8.34 5 7.68 5 7 C4.34 7 3.68 7 3 7 C3 6.01 3 5.02 3 4 C2.01 3.67 1.02 3.34 0 3 C0 2.01 0 1.02 0 0 Z " fill="#91E85D" transform="translate(509,355)"/>
<path d="M0 0 C0.99 0.33 1.98 0.66 3 1 C0.89863808 3.60644102 -1.2065741 6.20974567 -3.3125 8.8125 C-3.90740234 9.55048828 -4.50230469 10.28847656 -5.11523438 11.04882812 C-5.69208984 11.76103516 -6.26894531 12.47324219 -6.86328125 13.20703125 C-7.39219971 13.8616333 -7.92111816 14.51623535 -8.46606445 15.19067383 C-9.90383285 16.88656777 -11.40372474 18.45393523 -13 20 C-12.55491959 14.95575532 -10.39019075 12.55556591 -7 9 C-6.34 9 -5.68 9 -5 9 C-4.896875 8.360625 -4.79375 7.72125 -4.6875 7.0625 C-4.460625 6.381875 -4.23375 5.70125 -4 5 C-3.01 4.67 -2.02 4.34 -1 4 C-0.26676204 1.98491642 -0.26676204 1.98491642 0 0 Z " fill="#42A03E" transform="translate(728,522)"/>
<path d="M0 0 C3.33434242 1.4031723 5.05526479 2.96989805 7.1875 5.875 C7.95126953 6.89207031 7.95126953 6.89207031 8.73046875 7.9296875 C11.32702124 12.1640654 11.09404721 16.1095451 11 21 C10.87625 20.360625 10.7525 19.72125 10.625 19.0625 C10.41875 18.381875 10.2125 17.70125 10 17 C9.34 16.67 8.68 16.34 8 16 C7.27129528 13.68529088 6.60760482 11.3494053 6 9 C5.67 8.01 5.34 7.02 5 6 C4.34 6 3.68 6 3 6 C0 2.53846154 0 2.53846154 0 0 Z " fill="#5BCD46" transform="translate(938,797)"/>
<path d="M0 0 C2.97 0.33 5.94 0.66 9 1 C9 1.33 9 1.66 9 2 C7.02 2.66 5.04 3.32 3 4 C2.34 10.6 1.68 17.2 1 24 C0.67 24 0.34 24 0 24 C0 16.08 0 8.16 0 0 Z " fill="#57C63F" transform="translate(748,617)"/>
<path d="M0 0 C2.31 0 4.62 0 7 0 C7 0.33 7 0.66 7 1 C5.35 1 3.7 1 2 1 C2 4.3 2 7.6 2 11 C3.32 11.33 4.64 11.66 6 12 C4.68 12 3.36 12 2 12 C2 13.98 2 15.96 2 18 C1.34 18 0.68 18 0 18 C0 12.06 0 6.12 0 0 Z " fill="#68F34A" transform="translate(687,922)"/>
<path d="M0 0 C0 0.66 0 1.32 0 2 C-7.77729519 5.21819111 -14.64259099 5.32098157 -23 5 C-23 4.34 -23 3.68 -23 3 C-21.73542969 2.86722656 -20.47085938 2.73445312 -19.16796875 2.59765625 C-17.50779375 2.41944537 -15.84763852 2.24105037 -14.1875 2.0625 C-13.35412109 1.97548828 -12.52074219 1.88847656 -11.66210938 1.79882812 C-10.45844727 1.66831055 -10.45844727 1.66831055 -9.23046875 1.53515625 C-8.49207764 1.456604 -7.75368652 1.37805176 -6.99291992 1.29711914 C-4.54906177 0.93277082 -2.48639245 0 0 0 Z " fill="#3A9B2E" transform="translate(929,850)"/>
<path d="M0 0 C0.88935377 3.303314 1.46274105 6.62294375 2 10 C-1.875 8.25 -1.875 8.25 -3 6 C-6.02934491 5.34227572 -6.02934491 5.34227572 -9 5 C-9 4.01 -9 3.02 -9 2 C-6.94921875 1.77213542 -4.8984375 1.54427083 -2.84765625 1.31640625 C-0.98859771 1.18113386 -0.98859771 1.18113386 0 0 Z " fill="#5DE045" transform="translate(698,930)"/>
<path d="M0 0 C2.31 0.66 4.62 1.32 7 2 C7.33 3.32 7.66 4.64 8 6 C0.49230769 6.36923077 0.49230769 6.36923077 -2 4.5 C-2.33 4.005 -2.66 3.51 -3 3 C-2.01 2.01 -1.02 1.02 0 0 Z " fill="#040D03" transform="translate(875,931)"/>
<path d="M0 0 C1.03253906 0.00676758 1.03253906 0.00676758 2.0859375 0.01367188 C3.76566335 0.02533664 5.44534375 0.04326729 7.125 0.0625 C7.455 0.7225 7.785 1.3825 8.125 2.0625 C4.05767825 2.9137999 1.15814297 2.95875399 -2.875 2.0625 C-3.865 2.5575 -3.865 2.5575 -4.875 3.0625 C-8.375 3.25 -8.375 3.25 -11.875 3.0625 C-12.535 2.4025 -13.195 1.7425 -13.875 1.0625 C-9.21962644 0.14157719 -4.72814567 -0.05955997 0 0 Z " fill="#67D946" transform="translate(760.875,786.9375)"/>
<path d="M0 0 C1.9375 0.125 1.9375 0.125 4 1 C5.52164099 3.89111788 6 5.71823412 6 9 C3 8 3 8 1 6 C-1.10820797 6.3185177 -1.10820797 6.3185177 -3 7 C-1.125 1.125 -1.125 1.125 0 0 Z " fill="#5AD83E" transform="translate(663,921)"/>
<path d="M0 0 C1.485 0.99 1.485 0.99 3 2 C2.84152588 2.86963379 2.68305176 3.73926758 2.51977539 4.63525391 C2.04102247 7.73444262 1.80141577 10.70523819 1.68359375 13.8359375 C1.64169922 14.89941406 1.59980469 15.96289062 1.55664062 17.05859375 C1.51732422 18.15300781 1.47800781 19.24742187 1.4375 20.375 C1.39431641 21.49261719 1.35113281 22.61023438 1.30664062 23.76171875 C1.20102589 26.50770199 1.0989203 29.25376881 1 32 C0.67 32 0.34 32 0 32 C0 21.44 0 10.88 0 0 Z " fill="#0F0F0F" transform="translate(222,795)"/>
<path d="M0 0 C3.3 0 6.6 0 10 0 C9.67 1.32 9.34 2.64 9 4 C6.04335481 5.4783226 3.25770263 5.06032783 0 5 C0 3.35 0 1.7 0 0 Z " fill="#030D03" transform="translate(342,924)"/>
<path d="M0 0 C2.31 0.66 4.62 1.32 7 2 C7 3.32 7 4.64 7 6 C0.47692308 6.36923077 0.47692308 6.36923077 -1.9375 4.5 C-2.4634375 3.7575 -2.4634375 3.7575 -3 3 C-2.34 3 -1.68 3 -1 3 C-0.67 2.01 -0.34 1.02 0 0 Z " fill="#071805" transform="translate(290,931)"/>
<path d="M0 0 C7.3557797 -1.00306087 12.6942879 2.52098642 19 6 C17.25 10.875 17.25 10.875 15 12 C15 10.02 15 8.04 15 6 C13.44219668 5.32243118 11.87849904 4.65840543 10.3125 4 C9.44238281 3.62875 8.57226562 3.2575 7.67578125 2.875 C4.9427998 1.98129512 2.85299066 1.83550324 0 2 C0 1.34 0 0.68 0 0 Z " fill="#65D74A" transform="translate(770,789)"/>
<path d="M0 0 C0.66 0.33 1.32 0.66 2 1 C2 1.66 2 2.32 2 3 C0.989375 3.391875 -0.02125 3.78375 -1.0625 4.1875 C-5.16020376 5.92693343 -8.45516887 8.32329078 -12 11 C-12.33 10.34 -12.66 9.68 -13 9 C-9.28570342 4.82141635 -5.35814198 1.82153171 0 0 Z " fill="#8CD252" transform="translate(795,323)"/>
<path d="M0 0 C0.33 0.99 0.66 1.98 1 3 C0.05957031 4.76171875 0.05957031 4.76171875 -1.421875 6.6875 C-1.95296875 7.38617187 -2.4840625 8.08484375 -3.03125 8.8046875 C-3.5984375 9.52914062 -4.165625 10.25359375 -4.75 11 C-5.30171875 11.72445312 -5.8534375 12.44890625 -6.421875 13.1953125 C-8.81142041 16.30861445 -11.17201095 19.27068614 -14 22 C-13.37770996 18.59590531 -12.09965425 16.44613199 -10.05859375 13.671875 C-9.18364258 12.47304688 -9.18364258 12.47304688 -8.29101562 11.25 C-7.37352539 10.0125 -7.37352539 10.0125 -6.4375 8.75 C-5.82197266 7.90953125 -5.20644531 7.0690625 -4.57226562 6.203125 C-3.05368836 4.13126764 -1.52947228 2.06382036 0 0 Z " fill="#1A6427" transform="translate(546,629)"/>
<path d="M0 0 C0.33 0 0.66 0 1 0 C1 5.61 1 11.22 1 17 C-0.32 16.67 -1.64 16.34 -3 16 C-2.835 15.113125 -2.67 14.22625 -2.5 13.3125 C-1.92262377 10.13574602 -1.92262377 10.13574602 -2.0625 7.4375 C-1.98939996 4.58659847 -1.17769584 2.57620965 0 0 Z " fill="#1A5A2A" transform="translate(740,672)"/>
<path d="M0 0 C0.99 0 1.98 0 3 0 C1.48674917 3.14290557 -0.188065 5.98010834 -2 9 C-5.63 6.69 -9.26 4.38 -13 2 C-10 1 -10 1 -7.95703125 1.77734375 C-7.24933594 2.16019531 -6.54164063 2.54304688 -5.8125 2.9375 C-5.09707031 3.31777344 -4.38164063 3.69804687 -3.64453125 4.08984375 C-3.10183594 4.39019531 -2.55914063 4.69054687 -2 5 C-1.34 3.35 -0.68 1.7 0 0 Z " fill="#62D150" transform="translate(851,503)"/>
<path d="M0 0 C0.33 0 0.66 0 1 0 C1.33 4.95 1.66 9.9 2 15 C-5 16 -5 16 -8.4375 14.0625 C-9.283125 13.381875 -10.12875 12.70125 -11 12 C-10.67 11.34 -10.34 10.68 -10 10 C-8.63875 10.7115625 -8.63875 10.7115625 -7.25 11.4375 C-3.96374418 13.15198545 -3.96374418 13.15198545 0 14 C0 9.38 0 4.76 0 0 Z " fill="#31882D" transform="translate(830,529)"/>
<path d="M0 0 C0.66 0.33 1.32 0.66 2 1 C2.48192771 6.42168675 2.48192771 6.42168675 0.4375 8.875 C-2.80273788 10.3704944 -5.47606359 10.20330402 -9 10 C-9 9.01 -9 8.02 -9 7 C-5.535 6.505 -5.535 6.505 -2 6 C-1.34 4.02 -0.68 2.04 0 0 Z " fill="#52D240" transform="translate(377,925)"/>
<path d="M0 0 C2.7708983 -0.02696009 5.5415345 -0.04681952 8.3125 -0.0625 C9.09818359 -0.07087891 9.88386719 -0.07925781 10.69335938 -0.08789062 C11.45068359 -0.09111328 12.20800781 -0.09433594 12.98828125 -0.09765625 C13.68477783 -0.10289307 14.38127441 -0.10812988 15.09887695 -0.11352539 C17 0 17 0 20 1 C20 1.66 20 2.32 20 3 C17.60385425 2.85834107 15.20817103 2.71181159 12.8125 2.5625 C12.13896484 2.52318359 11.46542969 2.48386719 10.77148438 2.44335938 C7.10300898 2.21072435 3.58305794 1.82792989 0 1 C0 0.67 0 0.34 0 0 Z " fill="#66D746" transform="translate(999,787)"/>
<path d="M0 0 C0 0.66 0 1.32 0 2 C-2.41474617 2.53160457 -4.83108107 3.05054766 -7.25 3.5625 C-8.27287109 3.78969727 -8.27287109 3.78969727 -9.31640625 4.02148438 C-12.81769038 4.75233495 -15.60298173 5.32203546 -19 4 C-12.44995746 1.30292366 -7.11513755 -0.53699151 0 0 Z " fill="#D4D4D4" transform="translate(579,787)"/>
<path d="M0 0 C6.2879759 4.95010869 11.07037669 10.7178043 16 17 C15.67 17.66 15.34 18.32 15 19 C13.07931085 16.84483711 11.1608194 14.68780959 9.24609375 12.52734375 C7.80787367 10.9090335 6.36313812 9.29647595 4.91015625 7.69140625 C4.27980469 6.98886719 3.64945313 6.28632813 3 5.5625 C2.4225 4.92441406 1.845 4.28632813 1.25 3.62890625 C0 2 0 2 0 0 Z " fill="#4EBD3C" transform="translate(588,447)"/>
<path d="M0 0 C3.3 0 6.6 0 10 0 C9.67 0.99 9.34 1.98 9 3 C8.01 3 7.02 3 6 3 C6 3.66 6 4.32 6 5 C4.02 5 2.04 5 0 5 C0 3.35 0 1.7 0 0 Z " fill="#030F03" transform="translate(598,924)"/>
<path d="M0 0 C0.703125 1.68359375 0.703125 1.68359375 1 4 C-0.328125 6.47265625 -0.328125 6.47265625 -2.25 9.0625 C-2.87390625 9.91972656 -3.4978125 10.77695312 -4.140625 11.66015625 C-5.67265789 13.58807158 -7.21043947 15.31538284 -9 17 C-9 12.78475431 -6.76377411 10.20136304 -4.5 6.8125 C-4.07074219 6.15830078 -3.64148438 5.50410156 -3.19921875 4.83007812 C-2.13889962 3.21603678 -1.07023847 1.60748119 0 0 Z " fill="#45AF37" transform="translate(677,473)"/>
<path d="M0 0 C0.66 0 1.32 0 2 0 C0.47987323 5.40489519 -3.27385218 8.98492628 -7 13 C-7.33 12.01 -7.66 11.02 -8 10 C-6.41796875 7.51953125 -6.41796875 7.51953125 -4.1875 4.8125 C-3.45917969 3.91144531 -2.73085938 3.01039063 -1.98046875 2.08203125 C-1.32691406 1.39496094 -0.67335938 0.70789063 0 0 Z " fill="#81E656" transform="translate(755,362)"/>
<path d="M0 0 C0.33 0 0.66 0 1 0 C1 3.96 1 7.92 1 12 C2.65 11.67 4.3 11.34 6 11 C5.67 11.99 5.34 12.98 5 14 C3.35 13.67 1.7 13.34 0 13 C0 8.71 0 4.42 0 0 Z M7 4 C9 7 9 7 8.625 9.1875 C8.41875 9.785625 8.2125 10.38375 8 11 C7.34 11 6.68 11 6 11 C6.33 8.69 6.66 6.38 7 4 Z " fill="#2C7529" transform="translate(837,531)"/>
<path d="M0 0 C1.80330533 3.60661066 2.46599103 6.08393425 3 10 C4.65 10.33 6.3 10.66 8 11 C8 11.33 8 11.66 8 12 C5.69 12 3.38 12 1 12 C1 13.98 1 15.96 1 18 C0.67 18 0.34 18 0 18 C0 12.06 0 6.12 0 0 Z " fill="#70F953" transform="translate(567,922)"/>
<path d="M0 0 C2.375 0.1875 2.375 0.1875 5 1 C6.59642719 3.68490027 7.12740282 5.21434929 6.625 8.3125 C6.41875 8.869375 6.2125 9.42625 6 10 C4.35 8.68 2.7 7.36 1 6 C1.33 4.35 1.66 2.7 2 1 C1.34 0.67 0.68 0.34 0 0 Z " fill="#5DD541" transform="translate(454,921)"/>
<path d="M0 0 C1.485 0.99 1.485 0.99 3 2 C3.36328125 4.71484375 3.36328125 4.71484375 3.3125 7.9375 C3.30863281 8.99839844 3.30476562 10.05929687 3.30078125 11.15234375 C3 14 3 14 1 17 C0.09586327 13.16275828 -0.10576898 9.62497726 -0.0625 5.6875 C-0.05347656 4.61886719 -0.04445313 3.55023437 -0.03515625 2.44921875 C-0.02355469 1.64097656 -0.01195312 0.83273437 0 0 Z " fill="#3EA735" transform="translate(814,833)"/>
<path d="M0 0 C1.58409994 0.11487748 3.16728963 0.24234508 4.75 0.375 C6.07257813 0.47941406 6.07257813 0.47941406 7.421875 0.5859375 C9.99066382 0.99850055 11.75841015 1.71160957 14 3 C7.25 4.125 7.25 4.125 5 3 C3.00039988 2.960008 0.99952758 2.95653201 -1 3 C-0.67 2.01 -0.34 1.02 0 0 Z " fill="#9BE45A" transform="translate(456,319)"/>
<path d="M0 0 C0.73075648 2.3140622 1.40138258 4.64828869 2 7 C0.125 6.8125 0.125 6.8125 -2 6 C-3.25 3.4375 -3.25 3.4375 -4 1 C-5.98 1 -7.96 1 -10 1 C-10 0.67 -10 0.34 -10 0 C-2.25 -1.125 -2.25 -1.125 0 0 Z " fill="#4CC139" transform="translate(858,934)"/>
<path d="M0 0 C0.33 0 0.66 0 1 0 C1 4.29 1 8.58 1 13 C-1.96404505 10.19195732 -4.44499019 7.81684226 -6 4 C-5.34 4 -4.68 4 -4 4 C-4 4.66 -4 5.32 -4 6 C-2.68 6.33 -1.36 6.66 0 7 C0 4.69 0 2.38 0 0 Z " fill="#092808" transform="translate(518,921)"/>
<path d="M0 0 C2 1.8125 2 1.8125 4 4 C4 4.99 4 5.98 4 7 C2.68 6.67 1.36 6.34 0 6 C0 9.96 0 13.92 0 18 C-0.33 18 -0.66 18 -1 18 C-1.02717692 15.93757383 -1.0464758 13.87504297 -1.0625 11.8125 C-1.07410156 10.66394531 -1.08570313 9.51539063 -1.09765625 8.33203125 C-1.01192832 5.40699414 -0.67849023 2.83683709 0 0 Z " fill="#4CCD39" transform="translate(509,922)"/>
<path d="M0 0 C0.66 0.99 1.32 1.98 2 3 C1.67 3.33 1.34 3.66 1 4 C0.76636119 5.84891946 0.58696365 7.70488031 0.4375 9.5625 C0.35371094 10.57441406 0.26992188 11.58632813 0.18359375 12.62890625 C0.12300781 13.41136719 0.06242188 14.19382812 0 15 C-0.66 15 -1.32 15 -2 15 C-2.05406122 13.06280622 -2.09282025 11.12518079 -2.125 9.1875 C-2.14820313 8.10855469 -2.17140625 7.02960937 -2.1953125 5.91796875 C-2 3 -2 3 0 0 Z " fill="#5BC446" transform="translate(725,803)"/>
<path d="M0 0 C-2.89469557 2.41224631 -5.5880144 4.40774005 -9 6 C-9.99 6.66 -10.98 7.32 -12 8 C-11.67715014 4.98673462 -10.96634616 3.96538462 -8.8125 1.75 C-5.56588078 -0.27011863 -3.75257718 -0.34907695 0 0 Z " fill="#69E052" transform="translate(828,498)"/>
<path d="M0 0 C0.66 0 1.32 0 2 0 C1.34376472 5.51237632 0.14514936 10.16130055 -4.1875 13.875 C-4.785625 14.24625 -5.38375 14.6175 -6 15 C-4 10 -2 5 0 0 Z " fill="#359731" transform="translate(790,847)"/>
<path d="M0 0 C0.99 0 1.98 0 3 0 C3.99 3.3 4.98 6.6 6 10 C4.68 9.67 3.36 9.34 2 9 C1.34 6.03 0.68 3.06 0 0 Z " fill="#5BD93E" transform="translate(619,921)"/>
<path d="M0 0 C0.66 0 1.32 0 2 0 C1.43697042 3.94120709 0.3208055 6.7508723 -2 10 C-2.66 10 -3.32 10 -4 10 C-3.52651586 5.8333396 -2.95303159 3.07115285 0 0 Z " fill="#56DD43" transform="translate(772,921)"/>
<path d="M0 0 C0.66 0.33 1.32 0.66 2 1 C0.35 5.62 -1.3 10.24 -3 15 C-3.33 15 -3.66 15 -4 15 C-4.45356243 8.53673535 -3.59378942 5.39068413 0 0 Z " fill="#59CA4B" transform="translate(873,807)"/>
<path d="M0 0 C2.93200474 2.85276137 5.64315404 5.65079784 8 9 C7.01 9.99 6.02 10.98 5 12 C4.16180842 10.37750059 3.3295884 8.75191503 2.5 7.125 C2.0359375 6.22007812 1.571875 5.31515625 1.09375 4.3828125 C0 2 0 2 0 0 Z " fill="#062108" transform="translate(582,569)"/>
<path d="M0 0 C3 3.625 3 3.625 3 7 C1.02 7 -0.96 7 -3 7 C-1.125 1.125 -1.125 1.125 0 0 Z " fill="#081F06" transform="translate(456,926)"/>
<path d="M0 0 C0.66 0.66 1.32 1.32 2 2 C1.67342446 5.75561867 0.8830622 8.73602552 -1 12 C-2.1875 10.5 -2.1875 10.5 -3 8 C-2.27101296 5.21175762 -1.1843275 2.62334908 0 0 Z " fill="#48D03C" transform="translate(630,925)"/>
<path d="M0 0 C-0.33 0.99 -0.66 1.98 -1 3 C-3.9375 4.125 -3.9375 4.125 -7 5 C-7.99 5.495 -7.99 5.495 -9 6 C-9 5.34 -9 4.68 -9 4 C-9.66 3.67 -10.32 3.34 -11 3 C-7.48550811 -0.37391222 -4.73940561 -0.27342725 0 0 Z " fill="#4DC838" transform="translate(797,921)"/>
<path d="M0 0 C0.66 0 1.32 0 2 0 C2 0.66 2 1.32 2 2 C2.763125 2.268125 3.52625 2.53625 4.3125 2.8125 C6.87380884 3.94424112 8.19692938 4.91223401 10 7 C8.88625 6.5359375 8.88625 6.5359375 7.75 6.0625 C3.2874552 4.09704212 3.2874552 4.09704212 -1.25 4.9375 C-1.8275 5.288125 -2.405 5.63875 -3 6 C-1.125 1.125 -1.125 1.125 0 0 Z " fill="#349728" transform="translate(728,845)"/>
<path d="M0 0 C1.5 1.25 1.5 1.25 3 3 C3 4.32 3 5.64 3 7 C1.35 7 -0.3 7 -2 7 C-1.125 1.125 -1.125 1.125 0 0 Z " fill="#091E07" transform="translate(664,926)"/>
<path d="M0 0 C0.66 0.33 1.32 0.66 2 1 C0.44499019 4.81684226 -2.03595495 7.19195732 -5 10 C-4.49701212 5.59885603 -2.91227269 3.28804981 0 0 Z " fill="#6EDC51" transform="translate(728,400)"/>
<path d="M0 0 C2.31 0.33 4.62 0.66 7 1 C7 1.33 7 1.66 7 2 C5.35 2 3.7 2 2 2 C2 3.98 2 5.96 2 8 C1.01 8 0.02 8 -1 8 C-0.67 5.36 -0.34 2.72 0 0 Z " fill="#66F050" transform="translate(366,932)"/>
<path d="M0 0 C0.68359375 1.765625 0.68359375 1.765625 1 4 C-0.21484375 5.921875 -0.21484375 5.921875 -1.9375 7.75 C-2.50339844 8.36359375 -3.06929687 8.9771875 -3.65234375 9.609375 C-4.31943359 10.29773438 -4.31943359 10.29773438 -5 11 C-5.33 10.01 -5.66 9.02 -6 8 C-4.78515625 5.95703125 -4.78515625 5.95703125 -3.0625 3.8125 C-2.49660156 3.09707031 -1.93070313 2.38164062 -1.34765625 1.64453125 C-0.90292969 1.10183594 -0.45820312 0.55914062 0 0 Z " fill="#8AE25E" transform="translate(764,349)"/>
<path d="M0 0 C0.90105469 0.00902344 1.80210937 0.01804687 2.73046875 0.02734375 C3.41753906 0.03894531 4.10460937 0.05054688 4.8125 0.0625 C5.1425 0.7225 5.4725 1.3825 5.8125 2.0625 C5.1525 2.7225 4.4925 3.3825 3.8125 4.0625 C0.8699037 3.75597955 -1.53292308 3.38978846 -4.1875 2.0625 C-5.51610925 1.71080932 -6.84908328 1.37479724 -8.1875 1.0625 C-5.17259443 0.05753148 -3.14568308 -0.04085303 0 0 Z " fill="#91D953" transform="translate(812.1875,318.9375)"/>
<path d="M0 0 C-5.66748157 2.83374078 -10.69732561 3.63223832 -17 4 C-13.35609588 1.0047909 -10.69517106 0.51220048 -6 0 C-3 -1 -3 -1 0 0 Z " fill="#2F8D2E" transform="translate(781,865)"/>
<path d="M0 0 C0 0.99 0 1.98 0 3 C-1.66666667 4.66666667 -3.33333333 6.33333333 -5 8 C-5 8.99 -5 9.98 -5 11 C-6.65 11 -8.3 11 -10 11 C-6.79239749 7.19364503 -3.59253891 3.45436433 0 0 Z " fill="#0E4D1F" transform="translate(508,678)"/>
<path d="M0 0 C0.33 0.66 0.66 1.32 1 2 C1.99 2.33 2.98 2.66 4 3 C3.690625 3.53625 3.38125 4.0725 3.0625 4.625 C1.82172561 7.3984957 1.4090325 10.00042837 1 13 C0.67 13 0.34 13 0 13 C0 8.71 0 4.42 0 0 Z " fill="#64D74A" transform="translate(831,506)"/>
<path d="M0 0 C1.62463842 -0.05395478 3.24978541 -0.09277195 4.875 -0.125 C5.77992188 -0.14820313 6.68484375 -0.17140625 7.6171875 -0.1953125 C10 0 10 0 12 2 C8.95016004 3.52491998 6.3576631 3.23562548 3 3 C1.27734375 1.484375 1.27734375 1.484375 0 0 Z " fill="#50D034" transform="translate(478,921)"/>
<path d="M0 0 C0 0.66 0 1.32 0 2 C-1.95689659 2.22142255 -3.91561952 2.4267568 -5.875 2.625 C-7.51082031 2.79902344 -7.51082031 2.79902344 -9.1796875 2.9765625 C-10.57574219 2.98816406 -10.57574219 2.98816406 -12 3 C-12.66 2.34 -13.32 1.68 -14 1 C-12.04310963 0.63794536 -10.08442332 0.28558579 -8.125 -0.0625 C-7.03445313 -0.25972656 -5.94390625 -0.45695313 -4.8203125 -0.66015625 C-2 -1 -2 -1 0 0 Z " fill="#369A2C" transform="translate(857,852)"/>
<path d="M0 0 C0.33 0 0.66 0 1 0 C1.06058594 0.90363281 1.12117187 1.80726563 1.18359375 2.73828125 C1.26738281 3.91777344 1.35117187 5.09726562 1.4375 6.3125 C1.51871094 7.48425781 1.59992187 8.65601563 1.68359375 9.86328125 C1.8867371 13.02590958 1.8867371 13.02590958 3 16 C2.34 16.99 1.68 17.98 1 19 C-0.25433458 15.23699626 -0.10695422 11.72789091 -0.0625 7.8125 C-0.05798828 7.06291016 -0.05347656 6.31332031 -0.04882812 5.54101562 C-0.03706354 3.69397617 -0.01912865 1.84697787 0 0 Z " fill="#47B83E" transform="translate(814,817)"/>
<path d="M0 0 C4.16138263 -0.08159574 7.9472484 0.01751476 12 1 C12 1.66 12 2.32 12 3 C10.37419034 2.88601335 8.74932843 2.75844341 7.125 2.625 C6.22007812 2.55539062 5.31515625 2.48578125 4.3828125 2.4140625 C2 2 2 2 0 0 Z " fill="#317C2F" transform="translate(818,550)"/>
<path d="M0 0 C-0.99 0.495 -0.99 0.495 -2 1 C-2.65213292 3.02463255 -2.65213292 3.02463255 -3 5 C-5.475 4.01 -5.475 4.01 -8 3 C-7.67 2.01 -7.34 1.02 -7 0 C-4.3333581 -1.33332095 -2.83319697 -0.67102033 0 0 Z " fill="#071F04" transform="translate(880,932)"/>
<path d="M0 0 C2.875 -0.125 2.875 -0.125 6 0 C6.66 0.66 7.32 1.32 8 2 C7.625 4.625 7.625 4.625 7 7 C6.34 7 5.68 7 5 7 C4.87625 6.071875 4.87625 6.071875 4.75 5.125 C4.18741541 2.81562433 4.18741541 2.81562433 1.9375 1.75 C1.298125 1.5025 0.65875 1.255 0 1 C0 0.67 0 0.34 0 0 Z " fill="#59E03F" transform="translate(292,930)"/>
<path d="M0 0 C0.66 0 1.32 0 2 0 C1.1875 3.4375 1.1875 3.4375 0 7 C-3 8 -3 8 -5.1875 7.0625 C-5.785625 6.711875 -6.38375 6.36125 -7 6 C-6.21625 5.690625 -5.4325 5.38125 -4.625 5.0625 C-2.07669872 4.07124962 -2.07669872 4.07124962 0 3 C0 2.01 0 1.02 0 0 Z " fill="#0F370D" transform="translate(885,922)"/>
<path d="M0 0 C1.98 0 3.96 0 6 0 C5.01 0.66 4.02 1.32 3 2 C2.42251197 3.96361864 2.42251197 3.96361864 2.3125 6.125 C2.209375 7.40375 2.10625 8.6825 2 10 C-0.4294516 6.3558226 -0.16179575 4.28758728 0 0 Z " fill="#6CFA49" transform="translate(478,922)"/>
<path d="M0 0 C3.375 -0.125 3.375 -0.125 7 0 C7.66 0.66 8.32 1.32 9 2 C5.86650268 3.04449911 5.01031744 2.93423645 2 2 C2 2.66 2 3.32 2 4 C1.34 4 0.68 4 0 4 C0 2.68 0 1.36 0 0 Z " fill="#0E360B" transform="translate(291,924)"/>
<path d="M0 0 C0 3.63195496 -0.95453155 4.74713911 -3 7.6875 C-3.556875 8.49574219 -4.11375 9.30398438 -4.6875 10.13671875 C-5.120625 10.75160156 -5.55375 11.36648438 -6 12 C-6.33 11.01 -6.66 10.02 -7 9 C-5.02154932 5.60837026 -2.9244745 2.63202705 0 0 Z " fill="#69E55A" transform="translate(609,406)"/>
<path d="M0 0 C0.99 0.33 1.98 0.66 3 1 C1.02 2.98 -0.96 4.96 -3 7 C-3.99 6.67 -4.98 6.34 -6 6 C-4.02 4.02 -2.04 2.04 0 0 Z " fill="#A1F168" transform="translate(777,335)"/>
<path d="M0 0 C0.66 0 1.32 0 2 0 C1.45276317 3.37462715 0.9451 5.08235 -1 8 C-1.66 6.02 -2.32 4.04 -3 2 C-2.01 2 -1.02 2 0 2 C0 1.34 0 0.68 0 0 Z " fill="#071A06" transform="translate(640,927)"/>
<path d="M0 0 C-2.85478326 1.90318884 -4.41941308 2.4619099 -7.6875 3.125 C-8.49574219 3.29257812 -9.30398438 3.46015625 -10.13671875 3.6328125 C-10.75160156 3.75398437 -11.36648438 3.87515625 -12 4 C-9.57836922 -0.84326157 -4.82936706 -0.18574489 0 0 Z " fill="#6AD456" transform="translate(1007,802)"/>
<path d="M0 0 C3.36179774 1.44077046 5.59156268 3.24750021 8 6 C8 6.66 8 7.32 8 8 C6.0625 7.1875 6.0625 7.1875 4 6 C3.67 5.01 3.34 4.02 3 3 C2.01 2.67 1.02 2.34 0 2 C0 1.34 0 0.68 0 0 Z " fill="#65DB4B" transform="translate(1036,796)"/>
<path d="M0 0 C-2.3129482 2.3129482 -3.47904875 2.49580975 -6.625 3.125 C-7.44226563 3.29257812 -8.25953125 3.46015625 -9.1015625 3.6328125 C-10.04128906 3.81457031 -10.04128906 3.81457031 -11 4 C-11 3.34 -11 2.68 -11 2 C-7.36576791 -0.32590854 -4.22911669 -0.16265833 0 0 Z " fill="#66D54B" transform="translate(746,789)"/>
<path d="M0 0 C2.31 0 4.62 0 7 0 C7 0.99 7 1.98 7 3 C4.36 3 1.72 3 -1 3 C-0.67 2.01 -0.34 1.02 0 0 Z " fill="#48B333" transform="translate(853,572)"/>
<path d="M0 0 C-6.5 3 -6.5 3 -11 3 C-11 2.34 -11 1.68 -11 1 C-3.57142857 -1.42857143 -3.57142857 -1.42857143 0 0 Z " fill="#2B7D2D" transform="translate(849,550)"/>
<path d="M0 0 C2.375 -0.1875 2.375 -0.1875 5 0 C5.66 0.99 6.32 1.98 7 3 C5.35 3.66 3.7 4.32 2 5 C1.34 3.35 0.68 1.7 0 0 Z " fill="#081B06" transform="translate(570,935)"/>
<path d="M0 0 C1.98 0 3.96 0 6 0 C5.38125 0.598125 4.7625 1.19625 4.125 1.8125 C1.86323046 4.00811144 1.86323046 4.00811144 0 7 C0 4.69 0 2.38 0 0 Z " fill="#011302" transform="translate(952,933)"/>
<path d="M0 0 C0.66 0.33 1.32 0.66 2 1 C0.90931332 4.77545388 0.0916909 7.47043472 -3 10 C-2.25 3.375 -2.25 3.375 0 0 Z " fill="#5EDB4D" transform="translate(972,805)"/>
<path d="M0 0 C0.66 0 1.32 0 2 0 C0.33248852 3.94139078 -2.22710649 6.7892812 -5 10 C-5 6.65580848 -4.52480606 5.93159679 -2.625 3.3125 C-2.18414063 2.68988281 -1.74328125 2.06726563 -1.2890625 1.42578125 C-0.86367188 0.95527344 -0.43828125 0.48476563 0 0 Z " fill="#368939" transform="translate(688,573)"/>
<path d="M0 0 C1.98 0 3.96 0 6 0 C6 2.31 6 4.62 6 7 C5.67 7 5.34 7 5 7 C5 5.02 5 3.04 5 1 C1.83333333 2.83333333 1.83333333 2.83333333 0 6 C0 4.02 0 2.04 0 0 Z " fill="#80F25B" transform="translate(831,490)"/>
<path d="M0 0 C1.7074998 1.28062485 3.37373596 2.61767557 5 4 C5 4.66 5 5.32 5 6 C3.35 6 1.7 6 0 6 C-1 3 -1 3 0 0 Z " fill="#60EB46" transform="translate(875,925)"/>
<path d="M0 0 C2.64 0 5.28 0 8 0 C8 0.99 8 1.98 8 3 C5.03 2.67 2.06 2.34 -1 2 C-0.67 1.34 -0.34 0.68 0 0 Z " fill="#65F046" transform="translate(877,922)"/>
<path d="M0 0 C2.5 1.375 2.5 1.375 5 3 C5 3.66 5 4.32 5 5 C5.99 5.33 6.98 5.66 8 6 C7.01 6.33 6.02 6.66 5 7 C2.7363436 5.59554165 0.9791315 3.8032087 -1 2 C-0.67 1.34 -0.34 0.68 0 0 Z " fill="#DFDFDF" transform="translate(553,857)"/>
<path d="M0 0 C1.2077558 3.62326739 0.54311128 4.64146369 -1 8 C-1.99 8 -2.98 8 -4 8 C-2.68 5.36 -1.36 2.72 0 0 Z " fill="#329626" transform="translate(724,851)"/>
<path d="M0 0 C0.66 0.99 1.32 1.98 2 3 C0.35 4.32 -1.3 5.64 -3 7 C-2.38722388 4.03824877 -1.74627478 2.61941217 0 0 Z " fill="#5FD74D" transform="translate(879,798)"/>
<path d="M0 0 C0 0.99 0 1.98 0 3 C-5.75 6 -5.75 6 -8 6 C-8 5.34 -8 4.68 -8 4 C-5.36 2.68 -2.72 1.36 0 0 Z " fill="#53C04A" transform="translate(643,446)"/>
<path d="M0 0 C0.66 0.33 1.32 0.66 2 1 C-0.97 4.96 -0.97 4.96 -4 9 C-4.33 8.01 -4.66 7.02 -5 6 C-3.59554165 3.7363436 -1.8032087 1.9791315 0 0 Z " fill="#77E058" transform="translate(740,383)"/>
<path d="M0 0 C0.66 0.66 1.32 1.32 2 2 C1.625 4.625 1.625 4.625 1 7 C0.01 7 -0.98 7 -2 7 C-1.125 2.25 -1.125 2.25 0 0 Z " fill="#53E13D" transform="translate(449,933)"/>
<path d="M0 0 C1.80411967 2.75924185 2.0127245 3.88972103 1.625 7.25 C1.41875 8.1575 1.2125 9.065 1 10 C-0.74959319 7.37561021 -1.62068453 6.03452373 -2 3 C-1.34 2.01 -0.68 1.02 0 0 Z " fill="#4CC03B" transform="translate(636,927)"/>
<path d="M0 0 C2.31 0 4.62 0 7 0 C6.67 1.32 6.34 2.64 6 4 C3.03 3.505 3.03 3.505 0 3 C0 2.01 0 1.02 0 0 Z " fill="#50D040" transform="translate(689,932)"/>
<path d="M0 0 C0.33 0 0.66 0 1 0 C0.74438677 2.3431213 0.40729228 4.67843403 0 7 C-0.99 7.495 -0.99 7.495 -2 8 C-2.33 5.69 -2.66 3.38 -3 1 C-2.01 1.495 -2.01 1.495 -1 2 C-0.67 1.34 -0.34 0.68 0 0 Z " fill="#3FB032" transform="translate(701,925)"/>
<path d="M0 0 C0.99 0 1.98 0 3 0 C2.34 1.98 1.68 3.96 1 6 C0.01 6 -0.98 6 -2 6 C-1.34 4.02 -0.68 2.04 0 0 Z " fill="#48D134" transform="translate(644,921)"/>
<path d="M0 0 C0.93423645 3.01031744 1.04449911 3.86650268 0 7 C-0.66 7 -1.32 7 -2 7 C-2.33 7.99 -2.66 8.98 -3 10 C-2.25 3.375 -2.25 3.375 0 0 Z " fill="#C0BFC0" transform="translate(544,807)"/>
<path d="M0 0 C0.99 0.33 1.98 0.66 3 1 C-0.465 3.97 -0.465 3.97 -4 7 C-3.04065919 3.16263678 -2.76390737 2.40339772 0 0 Z " fill="#68DF4E" transform="translate(731,794)"/>
<path d="M0 0 C2.88437779 1.29299694 4.87219421 2.65941363 7 5 C6.67 5.99 6.34 6.98 6 8 C1.125 3.375 1.125 3.375 0 0 Z " fill="#69E156" transform="translate(643,406)"/>
<path d="M0 0 C-2.31 1.65 -4.62 3.3 -7 5 C-7.33 4.34 -7.66 3.68 -8 3 C-6 0 -6 0 -4 -0.75 C-2 -1 -2 -1 0 0 Z " fill="#A0EF65" transform="translate(790,329)"/>
<path d="M0 0 C-0.66 1.32 -1.32 2.64 -2 4 C-4.64 3.67 -7.28 3.34 -10 3 C-10 2.67 -10 2.34 -10 2 C-3.375 0 -3.375 0 0 0 Z " fill="#52CE3E" transform="translate(831,935)"/>
<path d="M0 0 C1.32 0.66 2.64 1.32 4 2 C3.01 3.485 3.01 3.485 2 5 C0.02 4.34 -1.96 3.68 -4 3 C-2.68 2.67 -1.36 2.34 0 2 C0 1.34 0 0.68 0 0 Z " fill="#4AC235" transform="translate(880,929)"/>
<path d="M0 0 C0.33 0 0.66 0 1 0 C1.36923077 5.53846154 1.36923077 5.53846154 -0.5 7.875 C-1.2425 8.431875 -1.2425 8.431875 -2 9 C-2.33 8.34 -2.66 7.68 -3 7 C-2.06421005 4.64018187 -1.06652192 2.30368736 0 0 Z " fill="#C1C0C1" transform="translate(692,799)"/>
<path d="M0 0 C2.5 2.3125 2.5 2.3125 5 5 C5 5.99 5 6.98 5 8 C2 7 2 7 0.8125 5.125 C0 3 0 3 0 0 Z " fill="#84DE55" transform="translate(520,367)"/>
<path d="M0 0 C1.98 1.65 3.96 3.3 6 5 C5.67 5.99 5.34 6.98 5 8 C2.5 5.6875 2.5 5.6875 0 3 C0 2.01 0 1.02 0 0 Z " fill="#9CED63" transform="translate(502,347)"/>
</svg>
